<?xml version="1.0" encoding="UTF-8" standalone="no"?>
<!DOCTYPE svg PUBLIC "-//W3C//DTD SVG 1.1//EN"
 "http://www.w3.org/Graphics/SVG/1.1/DTD/svg11.dtd">
<!-- Generated by graphviz version 2.43.0 (0)
 -->
<!-- Title: CacheComparison Pages: 1 -->
<svg width="417pt" height="241pt"
 viewBox="0.00 0.00 416.80 240.80" xmlns="http://www.w3.org/2000/svg" xmlns:xlink="http://www.w3.org/1999/xlink">
<g id="graph0" class="graph" transform="scale(1 1) rotate(0) translate(14.4 226.4)">
<title>CacheComparison</title>
<polygon fill="white" stroke="transparent" points="-14.4,14.4 -14.4,-226.4 402.4,-226.4 402.4,14.4 -14.4,14.4"/>
<!-- dynamic -->
<g id="node1" class="node">
<title>dynamic</title>
<path fill="#f2dede" stroke="#3a3a3a" d="M120.5,-44C120.5,-44 24.5,-44 24.5,-44 18.5,-44 12.5,-38 12.5,-32 12.5,-32 12.5,-12 12.5,-12 12.5,-6 18.5,0 24.5,0 24.5,0 120.5,0 120.5,0 126.5,0 132.5,-6 132.5,-12 132.5,-12 132.5,-32 132.5,-32 132.5,-38 126.5,-44 120.5,-44"/>
<text text-anchor="middle" x="72.5" y="-31.2" font-family="Helvetica,sans-Serif" font-size="11.00">Dynamic</text>
<text text-anchor="middle" x="72.5" y="-19.2" font-family="Helvetica,sans-Serif" font-size="11.00">append by cat</text>
<text text-anchor="middle" x="72.5" y="-7.2" font-family="Helvetica,sans-Serif" font-size="11.00">copy every growth</text>
</g>
<!-- d_note -->
<g id="node4" class="node">
<title>d_note</title>
<polygon fill="#fff7cc" stroke="#b38f00" points="348,-40 229,-40 229,-4 354,-4 354,-34 348,-40"/>
<polyline fill="none" stroke="#b38f00" points="348,-40 348,-34 "/>
<polyline fill="none" stroke="#b38f00" points="354,-34 348,-34 "/>
<text text-anchor="middle" x="291.5" y="-25.2" font-family="Helvetica,sans-Serif" font-size="11.00">优点: 最容易讲清楚</text>
<text text-anchor="middle" x="291.5" y="-13.2" font-family="Helvetica,sans-Serif" font-size="11.00">缺点: 扩容和复制最重</text>
</g>
<!-- dynamic&#45;&gt;d_note -->
<g id="edge1" class="edge">
<title>dynamic&#45;&gt;d_note</title>
<path fill="none" stroke="#666666" stroke-dasharray="5,2" d="M132.51,-22C162.38,-22 198.62,-22 228.85,-22"/>
</g>
<!-- prealloc -->
<g id="node2" class="node">
<title>prealloc</title>
<path fill="#d9edf7" stroke="#3a3a3a" d="M132,-128C132,-128 13,-128 13,-128 7,-128 1,-122 1,-116 1,-116 1,-96 1,-96 1,-90 7,-84 13,-84 13,-84 132,-84 132,-84 138,-84 144,-90 144,-96 144,-96 144,-116 144,-116 144,-122 138,-128 132,-128"/>
<text text-anchor="middle" x="72.5" y="-115.2" font-family="Helvetica,sans-Serif" font-size="11.00">Preallocated</text>
<text text-anchor="middle" x="72.5" y="-103.2" font-family="Helvetica,sans-Serif" font-size="11.00">full contiguous reserve</text>
<text text-anchor="middle" x="72.5" y="-91.2" font-family="Helvetica,sans-Serif" font-size="11.00">write by position</text>
</g>
<!-- p_note -->
<g id="node5" class="node">
<title>p_note</title>
<polygon fill="#fff7cc" stroke="#b38f00" points="354,-124 223,-124 223,-88 360,-88 360,-118 354,-124"/>
<polyline fill="none" stroke="#b38f00" points="354,-124 354,-118 "/>
<polyline fill="none" stroke="#b38f00" points="360,-118 354,-118 "/>
<text text-anchor="middle" x="291.5" y="-109.2" font-family="Helvetica,sans-Serif" font-size="11.00">优点: 单请求路径很直</text>
<text text-anchor="middle" x="291.5" y="-97.2" font-family="Helvetica,sans-Serif" font-size="11.00">缺点: 容易浪费保留空间</text>
</g>
<!-- prealloc&#45;&gt;p_note -->
<g id="edge2" class="edge">
<title>prealloc&#45;&gt;p_note</title>
<path fill="none" stroke="#666666" stroke-dasharray="5,2" d="M144.25,-106C169.48,-106 197.83,-106 222.8,-106"/>
</g>
<!-- paged -->
<g id="node3" class="node">
<title>paged</title>
<path fill="#dff0d8" stroke="#3a3a3a" d="M133,-212C133,-212 12,-212 12,-212 6,-212 0,-206 0,-200 0,-200 0,-180 0,-180 0,-174 6,-168 12,-168 12,-168 133,-168 133,-168 139,-168 145,-174 145,-180 145,-180 145,-200 145,-200 145,-206 139,-212 133,-212"/>
<text text-anchor="middle" x="72.5" y="-199.2" font-family="Helvetica,sans-Serif" font-size="11.00">Paged</text>
<text text-anchor="middle" x="72.5" y="-187.2" font-family="Helvetica,sans-Serif" font-size="11.00">small block allocation</text>
<text text-anchor="middle" x="72.5" y="-175.2" font-family="Helvetica,sans-Serif" font-size="11.00">logical &#45;&gt; physical map</text>
</g>
<!-- g_note -->
<g id="node6" class="node">
<title>g_note</title>
<polygon fill="#fff7cc" stroke="#b38f00" points="382,-208 195,-208 195,-172 388,-172 388,-202 382,-208"/>
<polyline fill="none" stroke="#b38f00" points="382,-208 382,-202 "/>
<polyline fill="none" stroke="#b38f00" points="388,-202 382,-202 "/>
<text text-anchor="middle" x="291.5" y="-193.2" font-family="Helvetica,sans-Serif" font-size="11.00">优点: 显存利用率和并发扩展性最好</text>
<text text-anchor="middle" x="291.5" y="-181.2" font-family="Helvetica,sans-Serif" font-size="11.00">缺点: 需要页表和更复杂内核/调度</text>
</g>
<!-- paged&#45;&gt;g_note -->
<g id="edge3" class="edge">
<title>paged&#45;&gt;g_note</title>
<path fill="none" stroke="#666666" stroke-dasharray="5,2" d="M145.16,-190C161.08,-190 178.21,-190 194.92,-190"/>
</g>
</g>
</svg>
