<?xml version="1.0" encoding="UTF-8" standalone="no"?>
<!DOCTYPE svg PUBLIC "-//W3C//DTD SVG 1.1//EN"
 "http://www.w3.org/Graphics/SVG/1.1/DTD/svg11.dtd">
<!-- Generated by graphviz version 2.43.0 (0)
 -->
<!-- Title: DynamicKVCache Pages: 1 -->
<svg width="271pt" height="401pt"
 viewBox="0.00 0.00 270.50 401.00" xmlns="http://www.w3.org/2000/svg" xmlns:xlink="http://www.w3.org/1999/xlink">
<g id="graph0" class="graph" transform="scale(1 1) rotate(0) translate(4 397)">
<title>DynamicKVCache</title>
<polygon fill="white" stroke="transparent" points="-4,4 -4,-397 266.5,-397 266.5,4 -4,4"/>
<text text-anchor="middle" x="131.25" y="-380.2" font-family="Helvetica,sans-Serif" font-size="11.00">Dynamic KV Cache (token squares)</text>
<!-- s0 -->
<g id="node1" class="node">
<title>s0</title>
<polygon fill="#f5f5f5" stroke="transparent" points="1.5,-347 1.5,-372 120.5,-372 120.5,-347 1.5,-347"/>
<polygon fill="none" stroke="black" points="1.5,-347 1.5,-372 120.5,-372 120.5,-347 1.5,-347"/>
<text text-anchor="start" x="6.5" y="-356.8" font-family="Helvetica,sans-Serif" font-weight="bold" font-size="14.00">Step 0</text>
<text text-anchor="start" x="57.5" y="-356.8" font-family="Helvetica,sans-Serif" font-size="14.00"> (len=1)</text>
<polygon fill="#ffecb3" stroke="transparent" points="1.5,-322 1.5,-347 50.5,-347 50.5,-322 1.5,-322"/>
<polygon fill="none" stroke="black" points="1.5,-322 1.5,-347 50.5,-347 50.5,-322 1.5,-322"/>
<text text-anchor="start" x="18.5" y="-330.8" font-family="Helvetica,sans-Serif" font-size="14.00">t0</text>
<polygon fill="none" stroke="black" points="50.5,-322 50.5,-347 77.5,-347 77.5,-322 50.5,-322"/>
<text text-anchor="start" x="61.5" y="-330.8" font-family="Helvetica,sans-Serif" font-size="14.00"> </text>
<polygon fill="none" stroke="black" points="77.5,-322 77.5,-347 98.5,-347 98.5,-322 77.5,-322"/>
<text text-anchor="start" x="85.5" y="-330.8" font-family="Helvetica,sans-Serif" font-size="14.00"> </text>
<polygon fill="none" stroke="black" points="98.5,-322 98.5,-347 120.5,-347 120.5,-322 98.5,-322"/>
<text text-anchor="start" x="107" y="-330.8" font-family="Helvetica,sans-Serif" font-size="14.00"> </text>
<polygon fill="none" stroke="black" points="0,-321 0,-373 121,-373 121,-321 0,-321"/>
</g>
<!-- s1 -->
<g id="node2" class="node">
<title>s1</title>
<polygon fill="#f5f5f5" stroke="transparent" points="1.5,-240 1.5,-265 120.5,-265 120.5,-240 1.5,-240"/>
<polygon fill="none" stroke="black" points="1.5,-240 1.5,-265 120.5,-265 120.5,-240 1.5,-240"/>
<text text-anchor="start" x="6.5" y="-249.8" font-family="Helvetica,sans-Serif" font-weight="bold" font-size="14.00">Step 1</text>
<text text-anchor="start" x="57.5" y="-249.8" font-family="Helvetica,sans-Serif" font-size="14.00"> (len=2)</text>
<polygon fill="#ffecb3" stroke="transparent" points="1.5,-215 1.5,-240 45.5,-240 45.5,-215 1.5,-215"/>
<polygon fill="none" stroke="black" points="1.5,-215 1.5,-240 45.5,-240 45.5,-215 1.5,-215"/>
<text text-anchor="start" x="16" y="-223.8" font-family="Helvetica,sans-Serif" font-size="14.00">t0</text>
<polygon fill="#ffecb3" stroke="transparent" points="45.5,-215 45.5,-240 80.5,-240 80.5,-215 45.5,-215"/>
<polygon fill="none" stroke="black" points="45.5,-215 45.5,-240 80.5,-240 80.5,-215 45.5,-215"/>
<text text-anchor="start" x="55.5" y="-223.8" font-family="Helvetica,sans-Serif" font-size="14.00">t1</text>
<polygon fill="none" stroke="black" points="80.5,-215 80.5,-240 100.5,-240 100.5,-215 80.5,-215"/>
<text text-anchor="start" x="88" y="-223.8" font-family="Helvetica,sans-Serif" font-size="14.00"> </text>
<polygon fill="none" stroke="black" points="100.5,-215 100.5,-240 120.5,-240 120.5,-215 100.5,-215"/>
<text text-anchor="start" x="108" y="-223.8" font-family="Helvetica,sans-Serif" font-size="14.00"> </text>
<polygon fill="none" stroke="black" points="0,-214 0,-266 121,-266 121,-214 0,-214"/>
</g>
<!-- s0&#45;&gt;s1 -->
<g id="edge1" class="edge">
<title>s0&#45;&gt;s1</title>
<path fill="none" stroke="#d84315" d="M60.5,-320.82C60.5,-320.82 60.5,-276.28 60.5,-276.28"/>
<polygon fill="#d84315" stroke="#d84315" points="64,-276.28 60.5,-266.28 57,-276.28 64,-276.28"/>
<text text-anchor="middle" x="161.5" y="-289.8" font-family="Times,serif" font-size="14.00" fill="#bf360c">realloc + copy old + append</text>
</g>
<!-- s2 -->
<g id="node3" class="node">
<title>s2</title>
<polygon fill="#f5f5f5" stroke="transparent" points="1.5,-133 1.5,-158 120.5,-158 120.5,-133 1.5,-133"/>
<polygon fill="none" stroke="black" points="1.5,-133 1.5,-158 120.5,-158 120.5,-133 1.5,-133"/>
<text text-anchor="start" x="6.5" y="-142.8" font-family="Helvetica,sans-Serif" font-weight="bold" font-size="14.00">Step 2</text>
<text text-anchor="start" x="57.5" y="-142.8" font-family="Helvetica,sans-Serif" font-size="14.00"> (len=3)</text>
<polygon fill="#ffecb3" stroke="transparent" points="1.5,-108 1.5,-133 40.5,-133 40.5,-108 1.5,-108"/>
<polygon fill="none" stroke="black" points="1.5,-108 1.5,-133 40.5,-133 40.5,-108 1.5,-108"/>
<text text-anchor="start" x="13.5" y="-116.8" font-family="Helvetica,sans-Serif" font-size="14.00">t0</text>
<polygon fill="#ffecb3" stroke="transparent" points="40.5,-108 40.5,-133 72.5,-133 72.5,-108 40.5,-108"/>
<polygon fill="none" stroke="black" points="40.5,-108 40.5,-133 72.5,-133 72.5,-108 40.5,-108"/>
<text text-anchor="start" x="49" y="-116.8" font-family="Helvetica,sans-Serif" font-size="14.00">t1</text>
<polygon fill="#ffecb3" stroke="transparent" points="72.5,-108 72.5,-133 101.5,-133 101.5,-108 72.5,-108"/>
<polygon fill="none" stroke="black" points="72.5,-108 72.5,-133 101.5,-133 101.5,-108 72.5,-108"/>
<text text-anchor="start" x="79.5" y="-116.8" font-family="Helvetica,sans-Serif" font-size="14.00">t2</text>
<polygon fill="none" stroke="black" points="101.5,-108 101.5,-133 120.5,-133 120.5,-108 101.5,-108"/>
<text text-anchor="start" x="108.5" y="-116.8" font-family="Helvetica,sans-Serif" font-size="14.00"> </text>
<polygon fill="none" stroke="black" points="0,-107 0,-159 121,-159 121,-107 0,-107"/>
</g>
<!-- s1&#45;&gt;s2 -->
<g id="edge2" class="edge">
<title>s1&#45;&gt;s2</title>
<path fill="none" stroke="#d84315" d="M60.5,-213.82C60.5,-213.82 60.5,-169.28 60.5,-169.28"/>
<polygon fill="#d84315" stroke="#d84315" points="64,-169.28 60.5,-159.28 57,-169.28 64,-169.28"/>
<text text-anchor="middle" x="161.5" y="-182.8" font-family="Times,serif" font-size="14.00" fill="#bf360c">realloc + copy old + append</text>
</g>
<!-- s3 -->
<g id="node4" class="node">
<title>s3</title>
<polygon fill="#f5f5f5" stroke="transparent" points="1.5,-26 1.5,-51 120.5,-51 120.5,-26 1.5,-26"/>
<polygon fill="none" stroke="black" points="1.5,-26 1.5,-51 120.5,-51 120.5,-26 1.5,-26"/>
<text text-anchor="start" x="6.5" y="-35.8" font-family="Helvetica,sans-Serif" font-weight="bold" font-size="14.00">Step 3</text>
<text text-anchor="start" x="57.5" y="-35.8" font-family="Helvetica,sans-Serif" font-size="14.00"> (len=4)</text>
<polygon fill="#ffecb3" stroke="transparent" points="1.5,-1 1.5,-26 35.5,-26 35.5,-1 1.5,-1"/>
<polygon fill="none" stroke="black" points="1.5,-1 1.5,-26 35.5,-26 35.5,-1 1.5,-1"/>
<text text-anchor="start" x="11" y="-9.8" font-family="Helvetica,sans-Serif" font-size="14.00">t0</text>
<polygon fill="#ffecb3" stroke="transparent" points="35.5,-1 35.5,-26 65.5,-26 65.5,-1 35.5,-1"/>
<polygon fill="none" stroke="black" points="35.5,-1 35.5,-26 65.5,-26 65.5,-1 35.5,-1"/>
<text text-anchor="start" x="43" y="-9.8" font-family="Helvetica,sans-Serif" font-size="14.00">t1</text>
<polygon fill="#ffecb3" stroke="transparent" points="65.5,-1 65.5,-26 92.5,-26 92.5,-1 65.5,-1"/>
<polygon fill="none" stroke="black" points="65.5,-1 65.5,-26 92.5,-26 92.5,-1 65.5,-1"/>
<text text-anchor="start" x="71.5" y="-9.8" font-family="Helvetica,sans-Serif" font-size="14.00">t2</text>
<polygon fill="#ffecb3" stroke="transparent" points="92.5,-1 92.5,-26 120.5,-26 120.5,-1 92.5,-1"/>
<polygon fill="none" stroke="black" points="92.5,-1 92.5,-26 120.5,-26 120.5,-1 92.5,-1"/>
<text text-anchor="start" x="99" y="-9.8" font-family="Helvetica,sans-Serif" font-size="14.00">t3</text>
<polygon fill="none" stroke="black" points="0,0 0,-52 121,-52 121,0 0,0"/>
</g>
<!-- s2&#45;&gt;s3 -->
<g id="edge3" class="edge">
<title>s2&#45;&gt;s3</title>
<path fill="none" stroke="#d84315" d="M60.5,-106.82C60.5,-106.82 60.5,-62.28 60.5,-62.28"/>
<polygon fill="#d84315" stroke="#d84315" points="64,-62.28 60.5,-52.28 57,-62.28 64,-62.28"/>
<text text-anchor="middle" x="161.5" y="-75.8" font-family="Times,serif" font-size="14.00" fill="#bf360c">realloc + copy old + append</text>
</g>
</g>
</svg>
