<?xml version="1.0" encoding="UTF-8" standalone="no"?>
<!DOCTYPE svg PUBLIC "-//W3C//DTD SVG 1.1//EN"
 "http://www.w3.org/Graphics/SVG/1.1/DTD/svg11.dtd">
<!-- Generated by graphviz version 2.43.0 (0)
 -->
<!-- Title: OSPagingMemory Pages: 1 -->
<svg width="310pt" height="414pt"
 viewBox="0.00 0.00 310.00 414.00" xmlns="http://www.w3.org/2000/svg" xmlns:xlink="http://www.w3.org/1999/xlink">
<g id="graph0" class="graph" transform="scale(1 1) rotate(0) translate(4 410)">
<title>OSPagingMemory</title>
<polygon fill="white" stroke="transparent" points="-4,4 -4,-410 306,-410 306,4 -4,4"/>
<text text-anchor="middle" x="151" y="-393.2" font-family="Helvetica,sans-Serif" font-size="11.00">OS Paging (Virtual &#45;&gt; Physical)</text>
<!-- vmem -->
<g id="node1" class="node">
<title>vmem</title>
<polygon fill="#f5f5f5" stroke="transparent" points="74,-358 74,-385 229,-385 229,-358 74,-358"/>
<polygon fill="none" stroke="black" points="74,-358 74,-385 229,-385 229,-358 74,-358"/>
<text text-anchor="start" x="99" y="-368.8" font-family="Helvetica,sans-Serif" font-weight="bold" font-size="14.00">Virtual Pages</text>
<polygon fill="#e8f5e9" stroke="transparent" points="74,-331 74,-358 105,-358 105,-331 74,-331"/>
<polygon fill="none" stroke="black" points="74,-331 74,-358 105,-358 105,-331 74,-331"/>
<text text-anchor="start" x="80" y="-340.8" font-family="Helvetica,sans-Serif" font-size="14.00">V0</text>
<polygon fill="#e8f5e9" stroke="transparent" points="105,-331 105,-358 136,-358 136,-331 105,-331"/>
<polygon fill="none" stroke="black" points="105,-331 105,-358 136,-358 136,-331 105,-331"/>
<text text-anchor="start" x="111" y="-340.8" font-family="Helvetica,sans-Serif" font-size="14.00">V1</text>
<polygon fill="#e8f5e9" stroke="transparent" points="136,-331 136,-358 167,-358 167,-331 136,-331"/>
<polygon fill="none" stroke="black" points="136,-331 136,-358 167,-358 167,-331 136,-331"/>
<text text-anchor="start" x="142" y="-340.8" font-family="Helvetica,sans-Serif" font-size="14.00">V2</text>
<polygon fill="#e8f5e9" stroke="transparent" points="167,-331 167,-358 198,-358 198,-331 167,-331"/>
<polygon fill="none" stroke="black" points="167,-331 167,-358 198,-358 198,-331 167,-331"/>
<text text-anchor="start" x="173" y="-340.8" font-family="Helvetica,sans-Serif" font-size="14.00">V3</text>
<polygon fill="#e8f5e9" stroke="transparent" points="198,-331 198,-358 229,-358 229,-331 198,-331"/>
<polygon fill="none" stroke="black" points="198,-331 198,-358 229,-358 229,-331 198,-331"/>
<text text-anchor="start" x="204" y="-340.8" font-family="Helvetica,sans-Serif" font-size="14.00">V4</text>
<polygon fill="none" stroke="black" points="72.5,-330 72.5,-386 229.5,-386 229.5,-330 72.5,-330"/>
</g>
<!-- ptable -->
<g id="node2" class="node">
<title>ptable</title>
<polygon fill="#f5f5f5" stroke="transparent" points="103,-247 103,-274 200,-274 200,-247 103,-247"/>
<polygon fill="none" stroke="black" points="103,-247 103,-274 200,-274 200,-247 103,-247"/>
<text text-anchor="start" x="109" y="-257.8" font-family="Helvetica,sans-Serif" font-weight="bold" font-size="14.00">Page Table</text>
<polygon fill="none" stroke="black" points="103,-220 103,-247 152,-247 152,-220 103,-220"/>
<text text-anchor="start" x="118" y="-229.8" font-family="Helvetica,sans-Serif" font-size="14.00">V0</text>
<polygon fill="none" stroke="black" points="152,-220 152,-247 200,-247 200,-220 152,-220"/>
<text text-anchor="start" x="167" y="-229.8" font-family="Helvetica,sans-Serif" font-size="14.00">P7</text>
<polygon fill="none" stroke="black" points="103,-193 103,-220 152,-220 152,-193 103,-193"/>
<text text-anchor="start" x="118" y="-202.8" font-family="Helvetica,sans-Serif" font-size="14.00">V1</text>
<polygon fill="none" stroke="black" points="152,-193 152,-220 200,-220 200,-193 152,-193"/>
<text text-anchor="start" x="167" y="-202.8" font-family="Helvetica,sans-Serif" font-size="14.00">P2</text>
<polygon fill="none" stroke="black" points="103,-166 103,-193 152,-193 152,-166 103,-166"/>
<text text-anchor="start" x="118" y="-175.8" font-family="Helvetica,sans-Serif" font-size="14.00">V2</text>
<polygon fill="none" stroke="black" points="152,-166 152,-193 200,-193 200,-166 152,-166"/>
<text text-anchor="start" x="167" y="-175.8" font-family="Helvetica,sans-Serif" font-size="14.00">P9</text>
<polygon fill="none" stroke="black" points="103,-139 103,-166 152,-166 152,-139 103,-139"/>
<text text-anchor="start" x="118" y="-148.8" font-family="Helvetica,sans-Serif" font-size="14.00">V3</text>
<polygon fill="none" stroke="black" points="152,-139 152,-166 200,-166 200,-139 152,-139"/>
<text text-anchor="start" x="167" y="-148.8" font-family="Helvetica,sans-Serif" font-size="14.00">P1</text>
<polygon fill="none" stroke="black" points="103,-112 103,-139 152,-139 152,-112 103,-112"/>
<text text-anchor="start" x="118" y="-121.8" font-family="Helvetica,sans-Serif" font-size="14.00">V4</text>
<polygon fill="none" stroke="black" points="152,-112 152,-139 200,-139 200,-112 152,-112"/>
<text text-anchor="start" x="167" y="-121.8" font-family="Helvetica,sans-Serif" font-size="14.00">P5</text>
<polygon fill="none" stroke="black" points="101.5,-111 101.5,-275 200.5,-275 200.5,-111 101.5,-111"/>
</g>
<!-- vmem&#45;&gt;ptable -->
<g id="edge1" class="edge">
<title>vmem&#45;&gt;ptable</title>
<path fill="none" stroke="#607d8b" d="M151,-329.64C151,-329.64 151,-285.26 151,-285.26"/>
<polygon fill="#607d8b" stroke="#607d8b" points="154.5,-285.26 151,-275.26 147.5,-285.26 154.5,-285.26"/>
<text text-anchor="middle" x="175" y="-298.8" font-family="Times,serif" font-size="14.00" fill="#455a64">lookup</text>
</g>
<!-- pmem -->
<g id="node3" class="node">
<title>pmem</title>
<polygon fill="#f5f5f5" stroke="transparent" points="1,-28 1,-55 301,-55 301,-28 1,-28"/>
<polygon fill="none" stroke="black" points="1,-28 1,-55 301,-55 301,-28 1,-28"/>
<text text-anchor="start" x="87.5" y="-38.8" font-family="Helvetica,sans-Serif" font-weight="bold" font-size="14.00">Physical Frames</text>
<polygon fill="none" stroke="black" points="1,-1 1,-28 31,-28 31,-1 1,-1"/>
<text text-anchor="start" x="7" y="-10.8" font-family="Helvetica,sans-Serif" font-size="14.00">P0</text>
<polygon fill="#fff3e0" stroke="transparent" points="31,-1 31,-28 61,-28 61,-1 31,-1"/>
<polygon fill="none" stroke="black" points="31,-1 31,-28 61,-28 61,-1 31,-1"/>
<text text-anchor="start" x="37" y="-10.8" font-family="Helvetica,sans-Serif" font-size="14.00">P1</text>
<polygon fill="#fff3e0" stroke="transparent" points="61,-1 61,-28 91,-28 91,-1 61,-1"/>
<polygon fill="none" stroke="black" points="61,-1 61,-28 91,-28 91,-1 61,-1"/>
<text text-anchor="start" x="67" y="-10.8" font-family="Helvetica,sans-Serif" font-size="14.00">P2</text>
<polygon fill="none" stroke="black" points="91,-1 91,-28 121,-28 121,-1 91,-1"/>
<text text-anchor="start" x="97" y="-10.8" font-family="Helvetica,sans-Serif" font-size="14.00">P3</text>
<polygon fill="none" stroke="black" points="121,-1 121,-28 151,-28 151,-1 121,-1"/>
<text text-anchor="start" x="127" y="-10.8" font-family="Helvetica,sans-Serif" font-size="14.00">P4</text>
<polygon fill="#fff3e0" stroke="transparent" points="151,-1 151,-28 181,-28 181,-1 151,-1"/>
<polygon fill="none" stroke="black" points="151,-1 151,-28 181,-28 181,-1 151,-1"/>
<text text-anchor="start" x="157" y="-10.8" font-family="Helvetica,sans-Serif" font-size="14.00">P5</text>
<polygon fill="none" stroke="black" points="181,-1 181,-28 211,-28 211,-1 181,-1"/>
<text text-anchor="start" x="187" y="-10.8" font-family="Helvetica,sans-Serif" font-size="14.00">P6</text>
<polygon fill="#fff3e0" stroke="transparent" points="211,-1 211,-28 241,-28 241,-1 211,-1"/>
<polygon fill="none" stroke="black" points="211,-1 211,-28 241,-28 241,-1 211,-1"/>
<text text-anchor="start" x="217" y="-10.8" font-family="Helvetica,sans-Serif" font-size="14.00">P7</text>
<polygon fill="none" stroke="black" points="241,-1 241,-28 271,-28 271,-1 241,-1"/>
<text text-anchor="start" x="247" y="-10.8" font-family="Helvetica,sans-Serif" font-size="14.00">P8</text>
<polygon fill="#fff3e0" stroke="transparent" points="271,-1 271,-28 301,-28 301,-1 271,-1"/>
<polygon fill="none" stroke="black" points="271,-1 271,-28 301,-28 301,-1 271,-1"/>
<text text-anchor="start" x="277" y="-10.8" font-family="Helvetica,sans-Serif" font-size="14.00">P9</text>
<polygon fill="none" stroke="black" points="0,0 0,-56 302,-56 302,0 0,0"/>
</g>
<!-- ptable&#45;&gt;pmem -->
<g id="edge2" class="edge">
<title>ptable&#45;&gt;pmem</title>
<path fill="none" stroke="#607d8b" d="M151,-110.98C151,-110.98 151,-66.19 151,-66.19"/>
<polygon fill="#607d8b" stroke="#607d8b" points="154.5,-66.19 151,-56.19 147.5,-66.19 154.5,-66.19"/>
<text text-anchor="middle" x="183.5" y="-79.8" font-family="Times,serif" font-size="14.00" fill="#455a64">translate</text>
</g>
</g>
</svg>
