<?xml version="1.0" encoding="UTF-8" standalone="no"?>
<!DOCTYPE svg PUBLIC "-//W3C//DTD SVG 1.1//EN"
 "http://www.w3.org/Graphics/SVG/1.1/DTD/svg11.dtd">
<!-- Generated by graphviz version 2.43.0 (0)
 -->
<!-- Title: PagedKVCache Pages: 1 -->
<svg width="1315pt" height="308pt"
 viewBox="0.00 0.00 1315.00 307.50" xmlns="http://www.w3.org/2000/svg" xmlns:xlink="http://www.w3.org/1999/xlink">
<g id="graph0" class="graph" transform="scale(1 1) rotate(0) translate(4 303.5)">
<title>PagedKVCache</title>
<polygon fill="white" stroke="transparent" points="-4,4 -4,-303.5 1311,-303.5 1311,4 -4,4"/>
<text text-anchor="middle" x="653.5" y="-286.7" font-family="Helvetica,sans-Serif" font-size="11.00">Paged KV Cache (token squares + block_table mapping)</text>
<!-- logical -->
<g id="node1" class="node">
<title>logical</title>
<polygon fill="#f5f5f5" stroke="transparent" points="1.5,-184 1.5,-211 254.5,-211 254.5,-184 1.5,-184"/>
<polygon fill="none" stroke="black" points="1.5,-184 1.5,-211 254.5,-211 254.5,-184 1.5,-184"/>
<text text-anchor="start" x="7.5" y="-194.8" font-family="Helvetica,sans-Serif" font-weight="bold" font-size="14.00">Logical Tokens (request order)</text>
<polygon fill="#c8e6c9" stroke="transparent" points="1.5,-157 1.5,-184 69.5,-184 69.5,-157 1.5,-157"/>
<polygon fill="none" stroke="black" points="1.5,-157 1.5,-184 69.5,-184 69.5,-157 1.5,-157"/>
<text text-anchor="start" x="28" y="-166.8" font-family="Helvetica,sans-Serif" font-size="14.00">t0</text>
<polygon fill="#c8e6c9" stroke="transparent" points="69.5,-157 69.5,-184 117.5,-184 117.5,-157 69.5,-157"/>
<polygon fill="none" stroke="black" points="69.5,-157 69.5,-184 117.5,-184 117.5,-157 69.5,-157"/>
<text text-anchor="start" x="86" y="-166.8" font-family="Helvetica,sans-Serif" font-size="14.00">t1</text>
<polygon fill="#c8e6c9" stroke="transparent" points="117.5,-157 117.5,-184 154.5,-184 154.5,-157 117.5,-157"/>
<polygon fill="none" stroke="black" points="117.5,-157 117.5,-184 154.5,-184 154.5,-157 117.5,-157"/>
<text text-anchor="start" x="128.5" y="-166.8" font-family="Helvetica,sans-Serif" font-size="14.00">t2</text>
<polygon fill="#c8e6c9" stroke="transparent" points="154.5,-157 154.5,-184 186.5,-184 186.5,-157 154.5,-157"/>
<polygon fill="none" stroke="black" points="154.5,-157 154.5,-184 186.5,-184 186.5,-157 154.5,-157"/>
<text text-anchor="start" x="163" y="-166.8" font-family="Helvetica,sans-Serif" font-size="14.00">t3</text>
<polygon fill="#c8e6c9" stroke="transparent" points="186.5,-157 186.5,-184 220.5,-184 220.5,-157 186.5,-157"/>
<polygon fill="none" stroke="black" points="186.5,-157 186.5,-184 220.5,-184 220.5,-157 186.5,-157"/>
<text text-anchor="start" x="194" y="-166.8" font-family="Helvetica,sans-Serif" font-size="14.00">n0</text>
<polygon fill="#c8e6c9" stroke="transparent" points="220.5,-157 220.5,-184 254.5,-184 254.5,-157 220.5,-157"/>
<polygon fill="none" stroke="black" points="220.5,-157 220.5,-184 254.5,-184 254.5,-157 220.5,-157"/>
<text text-anchor="start" x="228" y="-166.8" font-family="Helvetica,sans-Serif" font-size="14.00">n1</text>
<polygon fill="none" stroke="black" points="0,-156 0,-212 255,-212 255,-156 0,-156"/>
</g>
<!-- table -->
<g id="node2" class="node">
<title>table</title>
<polygon fill="#f5f5f5" stroke="transparent" points="524,-251 524,-278 625,-278 625,-251 524,-251"/>
<polygon fill="none" stroke="black" points="524,-251 524,-278 625,-278 625,-251 524,-251"/>
<text text-anchor="start" x="530" y="-261.8" font-family="Helvetica,sans-Serif" font-weight="bold" font-size="14.00">block_table</text>
<polygon fill="none" stroke="black" points="524,-224 524,-251 570,-251 570,-224 524,-224"/>
<text text-anchor="start" x="542" y="-233.8" font-family="Helvetica,sans-Serif" font-size="14.00">0</text>
<polygon fill="none" stroke="black" points="570,-224 570,-251 625,-251 625,-224 570,-224"/>
<text text-anchor="start" x="592.5" y="-233.8" font-family="Helvetica,sans-Serif" font-size="14.00">3</text>
<polygon fill="none" stroke="black" points="524,-197 524,-224 570,-224 570,-197 524,-197"/>
<text text-anchor="start" x="542" y="-206.8" font-family="Helvetica,sans-Serif" font-size="14.00">1</text>
<polygon fill="none" stroke="black" points="570,-197 570,-224 625,-224 625,-197 570,-197"/>
<text text-anchor="start" x="592.5" y="-206.8" font-family="Helvetica,sans-Serif" font-size="14.00">7</text>
<polygon fill="none" stroke="black" points="524,-170 524,-197 570,-197 570,-170 524,-170"/>
<text text-anchor="start" x="542" y="-179.8" font-family="Helvetica,sans-Serif" font-size="14.00">2</text>
<polygon fill="none" stroke="black" points="570,-170 570,-197 625,-197 625,-170 570,-170"/>
<text text-anchor="start" x="592.5" y="-179.8" font-family="Helvetica,sans-Serif" font-size="14.00">2</text>
<polygon fill="none" stroke="black" points="524,-143 524,-170 570,-170 570,-143 524,-143"/>
<text text-anchor="start" x="542" y="-152.8" font-family="Helvetica,sans-Serif" font-size="14.00">3</text>
<polygon fill="none" stroke="black" points="570,-143 570,-170 625,-170 625,-143 570,-143"/>
<text text-anchor="start" x="588" y="-152.8" font-family="Helvetica,sans-Serif" font-size="14.00">12</text>
<polygon fill="none" stroke="black" points="524,-116 524,-143 570,-143 570,-116 524,-116"/>
<text text-anchor="start" x="542" y="-125.8" font-family="Helvetica,sans-Serif" font-size="14.00">4</text>
<polygon fill="none" stroke="black" points="570,-116 570,-143 625,-143 625,-116 570,-116"/>
<text text-anchor="start" x="592.5" y="-125.8" font-family="Helvetica,sans-Serif" font-size="14.00">9</text>
<polygon fill="none" stroke="black" points="524,-89 524,-116 570,-116 570,-89 524,-89"/>
<text text-anchor="start" x="542" y="-98.8" font-family="Helvetica,sans-Serif" font-size="14.00">5</text>
<polygon fill="none" stroke="black" points="570,-89 570,-116 625,-116 625,-89 570,-89"/>
<text text-anchor="start" x="588" y="-98.8" font-family="Helvetica,sans-Serif" font-size="14.00">15</text>
<polygon fill="none" stroke="black" points="522.5,-88.5 522.5,-279.5 625.5,-279.5 625.5,-88.5 522.5,-88.5"/>
</g>
<!-- logical&#45;&gt;table -->
<g id="edge1" class="edge">
<title>logical&#45;&gt;table</title>
<path fill="none" stroke="#546e7a" d="M255.15,-184C255.15,-184 512.46,-184 512.46,-184"/>
<polygon fill="#546e7a" stroke="#546e7a" points="512.46,-187.5 522.46,-184 512.46,-180.5 512.46,-187.5"/>
<text text-anchor="middle" x="362" y="-187.8" font-family="Times,serif" font-size="14.00" fill="#455a64">logical idx &#45;&gt; page idx</text>
</g>
<!-- physical -->
<g id="node3" class="node">
<title>physical</title>
<polygon fill="#f5f5f5" stroke="transparent" points="900,-54 900,-81 1306,-81 1306,-54 900,-54"/>
<polygon fill="none" stroke="black" points="900,-54 900,-81 1306,-81 1306,-54 900,-54"/>
<text text-anchor="start" x="1012.5" y="-64.8" font-family="Helvetica,sans-Serif" font-weight="bold" font-size="14.00">Physical KV Pool Pages</text>
<polygon fill="none" stroke="black" points="900,-27 900,-54 922,-54 922,-27 900,-27"/>
<text text-anchor="start" x="906" y="-36.8" font-family="Helvetica,sans-Serif" font-size="14.00">0</text>
<polygon fill="none" stroke="black" points="922,-27 922,-54 944,-54 944,-27 922,-27"/>
<text text-anchor="start" x="928" y="-36.8" font-family="Helvetica,sans-Serif" font-size="14.00">1</text>
<polygon fill="#ffe0b2" stroke="transparent" points="944,-27 944,-54 966,-54 966,-27 944,-27"/>
<polygon fill="none" stroke="black" points="944,-27 944,-54 966,-54 966,-27 944,-27"/>
<text text-anchor="start" x="950" y="-36.8" font-family="Helvetica,sans-Serif" font-size="14.00">2</text>
<polygon fill="#ffe0b2" stroke="transparent" points="966,-27 966,-54 988,-54 988,-27 966,-27"/>
<polygon fill="none" stroke="black" points="966,-27 966,-54 988,-54 988,-27 966,-27"/>
<text text-anchor="start" x="972" y="-36.8" font-family="Helvetica,sans-Serif" font-size="14.00">3</text>
<polygon fill="none" stroke="black" points="988,-27 988,-54 1010,-54 1010,-27 988,-27"/>
<text text-anchor="start" x="994" y="-36.8" font-family="Helvetica,sans-Serif" font-size="14.00">4</text>
<polygon fill="none" stroke="black" points="1010,-27 1010,-54 1032,-54 1032,-27 1010,-27"/>
<text text-anchor="start" x="1016" y="-36.8" font-family="Helvetica,sans-Serif" font-size="14.00">5</text>
<polygon fill="none" stroke="black" points="1032,-27 1032,-54 1054,-54 1054,-27 1032,-27"/>
<text text-anchor="start" x="1038" y="-36.8" font-family="Helvetica,sans-Serif" font-size="14.00">6</text>
<polygon fill="#ffe0b2" stroke="transparent" points="1054,-27 1054,-54 1076,-54 1076,-27 1054,-27"/>
<polygon fill="none" stroke="black" points="1054,-27 1054,-54 1076,-54 1076,-27 1054,-27"/>
<text text-anchor="start" x="1060" y="-36.8" font-family="Helvetica,sans-Serif" font-size="14.00">7</text>
<polygon fill="none" stroke="black" points="1076,-27 1076,-54 1098,-54 1098,-27 1076,-27"/>
<text text-anchor="start" x="1082" y="-36.8" font-family="Helvetica,sans-Serif" font-size="14.00">8</text>
<polygon fill="#ffe0b2" stroke="transparent" points="1098,-27 1098,-54 1120,-54 1120,-27 1098,-27"/>
<polygon fill="none" stroke="black" points="1098,-27 1098,-54 1120,-54 1120,-27 1098,-27"/>
<text text-anchor="start" x="1104" y="-36.8" font-family="Helvetica,sans-Serif" font-size="14.00">9</text>
<polygon fill="none" stroke="black" points="1120,-27 1120,-54 1151,-54 1151,-27 1120,-27"/>
<text text-anchor="start" x="1126" y="-36.8" font-family="Helvetica,sans-Serif" font-size="14.00">10</text>
<polygon fill="none" stroke="black" points="1151,-27 1151,-54 1182,-54 1182,-27 1151,-27"/>
<text text-anchor="start" x="1157" y="-36.8" font-family="Helvetica,sans-Serif" font-size="14.00">11</text>
<polygon fill="#ffe0b2" stroke="transparent" points="1182,-27 1182,-54 1213,-54 1213,-27 1182,-27"/>
<polygon fill="none" stroke="black" points="1182,-27 1182,-54 1213,-54 1213,-27 1182,-27"/>
<text text-anchor="start" x="1188" y="-36.8" font-family="Helvetica,sans-Serif" font-size="14.00">12</text>
<polygon fill="none" stroke="black" points="1213,-27 1213,-54 1244,-54 1244,-27 1213,-27"/>
<text text-anchor="start" x="1219" y="-36.8" font-family="Helvetica,sans-Serif" font-size="14.00">13</text>
<polygon fill="none" stroke="black" points="1244,-27 1244,-54 1275,-54 1275,-27 1244,-27"/>
<text text-anchor="start" x="1250" y="-36.8" font-family="Helvetica,sans-Serif" font-size="14.00">14</text>
<polygon fill="#ffe0b2" stroke="transparent" points="1275,-27 1275,-54 1306,-54 1306,-27 1275,-27"/>
<polygon fill="none" stroke="black" points="1275,-27 1275,-54 1306,-54 1306,-27 1275,-27"/>
<text text-anchor="start" x="1281" y="-36.8" font-family="Helvetica,sans-Serif" font-size="14.00">15</text>
<polygon fill="none" stroke="black" points="899,-26 899,-82 1307,-82 1307,-26 899,-26"/>
</g>
<!-- table&#45;&gt;physical -->
<g id="edge2" class="edge">
<title>table&#45;&gt;physical</title>
<path fill="none" stroke="#546e7a" d="M574,-88.25C574,-76.76 574,-69 574,-69 574,-69 888.85,-69 888.85,-69"/>
<polygon fill="#546e7a" stroke="#546e7a" points="888.85,-72.5 898.85,-69 888.85,-65.5 888.85,-72.5"/>
<text text-anchor="middle" x="789" y="-135.8" font-family="Times,serif" font-size="14.00" fill="#455a64">store/gather by indices</text>
</g>
<!-- free -->
<g id="node4" class="node">
<title>free</title>
<polygon fill="#f5f5f5" stroke="transparent" points="470,-28 470,-55 678,-55 678,-28 470,-28"/>
<polygon fill="none" stroke="black" points="470,-28 470,-55 678,-55 678,-28 470,-28"/>
<text text-anchor="start" x="535.5" y="-38.8" font-family="Helvetica,sans-Serif" font-weight="bold" font-size="14.00">free_slots</text>
<polygon fill="none" stroke="black" points="470,-1 470,-28 678,-28 678,-1 470,-1"/>
<text text-anchor="start" x="476" y="-10.8" font-family="Helvetica,sans-Serif" font-size="14.00">[0,1,4,5,6,8,10,11,13,14,...]</text>
<polygon fill="none" stroke="black" points="469,0 469,-56 679,-56 679,0 469,0"/>
</g>
<!-- free&#45;&gt;physical -->
<g id="edge3" class="edge">
<title>free&#45;&gt;physical</title>
<path fill="none" stroke="#546e7a" d="M679.15,-41C679.15,-41 888.99,-41 888.99,-41"/>
<polygon fill="#546e7a" stroke="#546e7a" points="888.99,-44.5 898.99,-41 888.99,-37.5 888.99,-44.5"/>
<text text-anchor="middle" x="789" y="-31.8" font-family="Times,serif" font-size="14.00" fill="#455a64">allocate/free pages</text>
</g>
</g>
</svg>
