<?xml version="1.0" encoding="UTF-8" standalone="no"?>
<!DOCTYPE svg PUBLIC "-//W3C//DTD SVG 1.1//EN"
 "http://www.w3.org/Graphics/SVG/1.1/DTD/svg11.dtd">
<!-- Generated by graphviz version 2.43.0 (0)
 -->
<!-- Title: PagedKVArchitectureAIOS Pages: 1 -->
<svg width="1078pt" height="340pt"
 viewBox="0.00 0.00 1078.00 340.00" xmlns="http://www.w3.org/2000/svg" xmlns:xlink="http://www.w3.org/1999/xlink">
<g id="graph0" class="graph" transform="scale(1 1) rotate(0) translate(4 336)">
<title>PagedKVArchitectureAIOS</title>
<polygon fill="white" stroke="transparent" points="-4,4 -4,-336 1074,-336 1074,4 -4,4"/>
<text text-anchor="middle" x="535" y="-319.2" font-family="Helvetica,sans-Serif" font-size="11.00">AIOS Current Paged KV Architecture</text>
<!-- llm -->
<g id="node1" class="node">
<title>llm</title>
<path fill="#eceff1" stroke="#455a64" d="M481,-312C481,-312 379,-312 379,-312 373,-312 367,-306 367,-300 367,-300 367,-288 367,-288 367,-282 373,-276 379,-276 379,-276 481,-276 481,-276 487,-276 493,-282 493,-288 493,-288 493,-300 493,-300 493,-306 487,-312 481,-312"/>
<text text-anchor="middle" x="430" y="-297" font-family="Helvetica,sans-Serif" font-size="10.00">LLM.generate()</text>
<text text-anchor="middle" x="430" y="-286" font-family="Helvetica,sans-Serif" font-size="10.00">python/aios/llm/llm.py</text>
</g>
<!-- cm -->
<g id="node2" class="node">
<title>cm</title>
<path fill="#eceff1" stroke="#455a64" d="M158,-225C158,-225 12,-225 12,-225 6,-225 0,-219 0,-213 0,-213 0,-196 0,-196 0,-190 6,-184 12,-184 12,-184 158,-184 158,-184 164,-184 170,-190 170,-196 170,-196 170,-213 170,-213 170,-219 164,-225 158,-225"/>
<text text-anchor="middle" x="85" y="-213" font-family="Helvetica,sans-Serif" font-size="10.00">CacheManager</text>
<text text-anchor="middle" x="85" y="-202" font-family="Helvetica,sans-Serif" font-size="10.00">allocate / _free</text>
<text text-anchor="middle" x="85" y="-191" font-family="Helvetica,sans-Serif" font-size="10.00">python/aios/scheduler/cache.py</text>
</g>
<!-- llm&#45;&gt;cm -->
<g id="edge1" class="edge">
<title>llm&#45;&gt;cm</title>
<path fill="none" stroke="#607d8b" d="M366.67,-300C260.16,-300 56.67,-300 56.67,-300 56.67,-300 56.67,-233.22 56.67,-233.22"/>
<polygon fill="#607d8b" stroke="#607d8b" points="59.47,-233.22 56.67,-225.22 53.87,-233.22 59.47,-233.22"/>
<text text-anchor="middle" x="75.5" y="-248" font-family="Helvetica,sans-Serif" font-size="10.00">paged path: allocate blocks</text>
</g>
<!-- llm&#45;&gt;cm -->
<g id="edge6" class="edge">
<title>llm&#45;&gt;cm</title>
<path fill="none" stroke="#607d8b" d="M366.68,-288C274.27,-288 113.33,-288 113.33,-288 113.33,-288 113.33,-233.14 113.33,-233.14"/>
<polygon fill="#607d8b" stroke="#607d8b" points="116.13,-233.14 113.33,-225.14 110.53,-233.14 116.13,-233.14"/>
<text text-anchor="middle" x="249.5" y="-248" font-family="Helvetica,sans-Serif" font-size="10.00">request end: _free(block_table)</text>
</g>
<!-- state -->
<g id="node3" class="node">
<title>state</title>
<path fill="#eceff1" stroke="#455a64" d="M412.5,-222.5C412.5,-222.5 271.5,-222.5 271.5,-222.5 265.5,-222.5 259.5,-216.5 259.5,-210.5 259.5,-210.5 259.5,-198.5 259.5,-198.5 259.5,-192.5 265.5,-186.5 271.5,-186.5 271.5,-186.5 412.5,-186.5 412.5,-186.5 418.5,-186.5 424.5,-192.5 424.5,-198.5 424.5,-198.5 424.5,-210.5 424.5,-210.5 424.5,-216.5 418.5,-222.5 412.5,-222.5"/>
<text text-anchor="middle" x="342" y="-207.5" font-family="Helvetica,sans-Serif" font-size="10.00">Request State in generate()</text>
<text text-anchor="middle" x="342" y="-196.5" font-family="Helvetica,sans-Serif" font-size="10.00">(block_table, seq_len, out_loc)</text>
</g>
<!-- llm&#45;&gt;state -->
<g id="edge2" class="edge">
<title>llm&#45;&gt;state</title>
<path fill="none" stroke="#607d8b" d="M395.75,-275.89C395.75,-275.89 395.75,-230.58 395.75,-230.58"/>
<polygon fill="#607d8b" stroke="#607d8b" points="398.55,-230.58 395.75,-222.58 392.95,-230.58 398.55,-230.58"/>
<text text-anchor="middle" x="421.5" y="-248" font-family="Helvetica,sans-Serif" font-size="10.00">maintain per&#45;request state</text>
</g>
<!-- qwen -->
<g id="node5" class="node">
<title>qwen</title>
<path fill="#eceff1" stroke="#455a64" d="M515,-133C515,-133 319,-133 319,-133 313,-133 307,-127 307,-121 307,-121 307,-104 307,-104 307,-98 313,-92 319,-92 319,-92 515,-92 515,-92 521,-92 527,-98 527,-104 527,-104 527,-121 527,-121 527,-127 521,-133 515,-133"/>
<text text-anchor="middle" x="417" y="-121" font-family="Helvetica,sans-Serif" font-size="10.00">Qwen3Model/Qwen3Attention</text>
<text text-anchor="middle" x="417" y="-110" font-family="Helvetica,sans-Serif" font-size="10.00">paged_kv_cache + block_table + seq_len</text>
<text text-anchor="middle" x="417" y="-99" font-family="Helvetica,sans-Serif" font-size="10.00">python/aios/models/qwen3.py</text>
</g>
<!-- llm&#45;&gt;qwen -->
<g id="edge3" class="edge">
<title>llm&#45;&gt;qwen</title>
<path fill="none" stroke="#607d8b" d="M447.33,-275.93C447.33,-275.93 447.33,-141.26 447.33,-141.26"/>
<polygon fill="#607d8b" stroke="#607d8b" points="450.13,-141.26 447.33,-133.26 444.53,-141.26 450.13,-141.26"/>
<text text-anchor="middle" x="580.5" y="-202" font-family="Helvetica,sans-Serif" font-size="10.00">model.forward(...paged args...)</text>
</g>
<!-- dyn -->
<g id="node6" class="node">
<title>dyn</title>
<path fill="#fff8e1" stroke="#455a64" d="M846.5,-222.5C846.5,-222.5 693.5,-222.5 693.5,-222.5 687.5,-222.5 681.5,-216.5 681.5,-210.5 681.5,-210.5 681.5,-198.5 681.5,-198.5 681.5,-192.5 687.5,-186.5 693.5,-186.5 693.5,-186.5 846.5,-186.5 846.5,-186.5 852.5,-186.5 858.5,-192.5 858.5,-198.5 858.5,-198.5 858.5,-210.5 858.5,-210.5 858.5,-216.5 852.5,-222.5 846.5,-222.5"/>
<text text-anchor="middle" x="770" y="-207.5" font-family="Helvetica,sans-Serif" font-size="10.00">DynamicKVCache</text>
<text text-anchor="middle" x="770" y="-196.5" font-family="Helvetica,sans-Serif" font-size="10.00">python/aios/kvcache/dynamic.py</text>
</g>
<!-- llm&#45;&gt;dyn -->
<g id="edge7" class="edge">
<title>llm&#45;&gt;dyn</title>
<path fill="none" stroke="#607d8b" stroke-dasharray="5,2" d="M470.17,-275.79C470.17,-249.49 470.17,-204 470.17,-204 470.17,-204 673.26,-204 673.26,-204"/>
<polygon fill="#607d8b" stroke="#607d8b" points="673.26,-206.8 681.26,-204 673.26,-201.2 673.26,-206.8"/>
<text text-anchor="middle" x="852.5" y="-248" font-family="Helvetica,sans-Serif" font-size="10.00">non&#45;paged path uses DynamicKVCache</text>
</g>
<!-- sampler -->
<g id="node7" class="node">
<title>sampler</title>
<path fill="#eceff1" stroke="#455a64" d="M1049,-222.5C1049,-222.5 909,-222.5 909,-222.5 903,-222.5 897,-216.5 897,-210.5 897,-210.5 897,-198.5 897,-198.5 897,-192.5 903,-186.5 909,-186.5 909,-186.5 1049,-186.5 1049,-186.5 1055,-186.5 1061,-192.5 1061,-198.5 1061,-198.5 1061,-210.5 1061,-210.5 1061,-216.5 1055,-222.5 1049,-222.5"/>
<text text-anchor="middle" x="979" y="-207.5" font-family="Helvetica,sans-Serif" font-size="10.00">Sampler</text>
<text text-anchor="middle" x="979" y="-196.5" font-family="Helvetica,sans-Serif" font-size="10.00">python/aios/engine/sample.py</text>
</g>
<!-- llm&#45;&gt;sampler -->
<g id="edge8" class="edge">
<title>llm&#45;&gt;sampler</title>
<path fill="none" stroke="#607d8b" d="M493.25,-294C637.6,-294 979,-294 979,-294 979,-294 979,-230.61 979,-230.61"/>
<polygon fill="#607d8b" stroke="#607d8b" points="981.8,-230.61 979,-222.61 976.2,-230.61 981.8,-230.61"/>
<text text-anchor="middle" x="1024.5" y="-248" font-family="Helvetica,sans-Serif" font-size="10.00">sample next token</text>
</g>
<!-- state&#45;&gt;qwen -->
<g id="edge5" class="edge">
<title>state&#45;&gt;qwen</title>
<path fill="none" stroke="#607d8b" d="M365.75,-186.32C365.75,-186.32 365.75,-141.21 365.75,-141.21"/>
<polygon fill="#607d8b" stroke="#607d8b" points="368.55,-141.21 365.75,-133.21 362.95,-141.21 368.55,-141.21"/>
<text text-anchor="middle" x="408" y="-156" font-family="Helvetica,sans-Serif" font-size="10.00">block_table + seq_len + out_loc</text>
</g>
<!-- pool -->
<g id="node4" class="node">
<title>pool</title>
<path fill="#eceff1" stroke="#455a64" d="M496.5,-41C496.5,-41 337.5,-41 337.5,-41 331.5,-41 325.5,-35 325.5,-29 325.5,-29 325.5,-12 325.5,-12 325.5,-6 331.5,0 337.5,0 337.5,0 496.5,0 496.5,0 502.5,0 508.5,-6 508.5,-12 508.5,-12 508.5,-29 508.5,-29 508.5,-35 502.5,-41 496.5,-41"/>
<text text-anchor="middle" x="417" y="-29" font-family="Helvetica,sans-Serif" font-size="10.00">MHAKVCache</text>
<text text-anchor="middle" x="417" y="-18" font-family="Helvetica,sans-Serif" font-size="10.00">physical pool + store_kv</text>
<text text-anchor="middle" x="417" y="-7" font-family="Helvetica,sans-Serif" font-size="10.00">python/aios/kvcache/mha_pool.py</text>
</g>
<!-- qwen&#45;&gt;pool -->
<g id="edge4" class="edge">
<title>qwen&#45;&gt;pool</title>
<path fill="none" stroke="#607d8b" d="M417,-91.62C417,-91.62 417,-49.29 417,-49.29"/>
<polygon fill="#607d8b" stroke="#607d8b" points="419.8,-49.29 417,-41.29 414.2,-49.29 419.8,-49.29"/>
<text text-anchor="middle" x="495.5" y="-64" font-family="Helvetica,sans-Serif" font-size="10.00">store_kv / gather by block_table</text>
</g>
</g>
</svg>
