<?xml version="1.0" encoding="UTF-8" standalone="no"?>
<!DOCTYPE svg PUBLIC "-//W3C//DTD SVG 1.1//EN"
 "http://www.w3.org/Graphics/SVG/1.1/DTD/svg11.dtd">
<!-- Generated by graphviz version 2.43.0 (0)
 -->
<!-- Title: PagedKVArchitectureAIOS Pages: 1 -->
<svg width="411pt" height="325pt"
 viewBox="0.00 0.00 410.50 325.00" xmlns="http://www.w3.org/2000/svg" xmlns:xlink="http://www.w3.org/1999/xlink">
<g id="graph0" class="graph" transform="scale(1 1) rotate(0) translate(4 321)">
<title>PagedKVArchitectureAIOS</title>
<polygon fill="white" stroke="transparent" points="-4,4 -4,-321 406.5,-321 406.5,4 -4,4"/>
<text text-anchor="middle" x="201.25" y="-304.2" font-family="Helvetica,sans-Serif" font-size="11.00">AIOS Paged KV Cache Architecture</text>
<!-- llm -->
<g id="node1" class="node">
<title>llm</title>
<path fill="#eceff1" stroke="#455a64" d="M244,-297C244,-297 185,-297 185,-297 179,-297 173,-291 173,-285 173,-285 173,-273 173,-273 173,-267 179,-261 185,-261 185,-261 244,-261 244,-261 250,-261 256,-267 256,-273 256,-273 256,-285 256,-285 256,-291 250,-297 244,-297"/>
<text text-anchor="middle" x="214.5" y="-276.5" font-family="Helvetica,sans-Serif" font-size="10.00">LLM.generate</text>
</g>
<!-- cm -->
<g id="node2" class="node">
<title>cm</title>
<path fill="#eceff1" stroke="#455a64" d="M77,-210C77,-210 12,-210 12,-210 6,-210 0,-204 0,-198 0,-198 0,-186 0,-186 0,-180 6,-174 12,-174 12,-174 77,-174 77,-174 83,-174 89,-180 89,-186 89,-186 89,-198 89,-198 89,-204 83,-210 77,-210"/>
<text text-anchor="middle" x="44.5" y="-189.5" font-family="Helvetica,sans-Serif" font-size="10.00">CacheManager</text>
</g>
<!-- llm&#45;&gt;cm -->
<g id="edge1" class="edge">
<title>llm&#45;&gt;cm</title>
<path fill="none" stroke="#607d8b" d="M172.91,-279C122.59,-279 44.5,-279 44.5,-279 44.5,-279 44.5,-218.03 44.5,-218.03"/>
<polygon fill="#607d8b" stroke="#607d8b" points="47.3,-218.03 44.5,-210.03 41.7,-218.03 47.3,-218.03"/>
<text text-anchor="middle" x="91.5" y="-233" font-family="Helvetica,sans-Serif" font-size="10.00">allocate/free pages</text>
</g>
<!-- state -->
<g id="node3" class="node">
<title>state</title>
<path fill="#eceff1" stroke="#455a64" d="M302.5,-210C302.5,-210 126.5,-210 126.5,-210 120.5,-210 114.5,-204 114.5,-198 114.5,-198 114.5,-186 114.5,-186 114.5,-180 120.5,-174 126.5,-174 126.5,-174 302.5,-174 302.5,-174 308.5,-174 314.5,-180 314.5,-186 314.5,-186 314.5,-198 314.5,-198 314.5,-204 308.5,-210 302.5,-210"/>
<text text-anchor="middle" x="214.5" y="-195" font-family="Helvetica,sans-Serif" font-size="10.00">Req</text>
<text text-anchor="middle" x="214.5" y="-184" font-family="Helvetica,sans-Serif" font-size="10.00">(cached_len, device_len, block_table)</text>
</g>
<!-- llm&#45;&gt;state -->
<g id="edge2" class="edge">
<title>llm&#45;&gt;state</title>
<path fill="none" stroke="#607d8b" d="M214.5,-260.97C214.5,-260.97 214.5,-218 214.5,-218"/>
<polygon fill="#607d8b" stroke="#607d8b" points="217.3,-218 214.5,-210 211.7,-218 217.3,-218"/>
<text text-anchor="middle" x="265.5" y="-233" font-family="Helvetica,sans-Serif" font-size="10.00">update request state</text>
</g>
<!-- qwen -->
<g id="node5" class="node">
<title>qwen</title>
<path fill="#eceff1" stroke="#455a64" d="M345,-123C345,-123 234,-123 234,-123 228,-123 222,-117 222,-111 222,-111 222,-99 222,-99 222,-93 228,-87 234,-87 234,-87 345,-87 345,-87 351,-87 357,-93 357,-99 357,-99 357,-111 357,-111 357,-117 351,-123 345,-123"/>
<text text-anchor="middle" x="289.5" y="-108" font-family="Helvetica,sans-Serif" font-size="10.00">Qwen3 Attention</text>
<text text-anchor="middle" x="289.5" y="-97" font-family="Helvetica,sans-Serif" font-size="10.00">(paged_kv_cache + req)</text>
</g>
<!-- llm&#45;&gt;qwen -->
<g id="edge3" class="edge">
<title>llm&#45;&gt;qwen</title>
<path fill="none" stroke="#607d8b" d="M256.23,-279C291.3,-279 335.75,-279 335.75,-279 335.75,-279 335.75,-131.29 335.75,-131.29"/>
<polygon fill="#607d8b" stroke="#607d8b" points="338.55,-131.29 335.75,-123.29 332.95,-131.29 338.55,-131.29"/>
<text text-anchor="middle" x="383.5" y="-189.5" font-family="Helvetica,sans-Serif" font-size="10.00">forward</text>
</g>
<!-- state&#45;&gt;qwen -->
<g id="edge4" class="edge">
<title>state&#45;&gt;qwen</title>
<path fill="none" stroke="#607d8b" d="M268.25,-173.97C268.25,-173.97 268.25,-131 268.25,-131"/>
<polygon fill="#607d8b" stroke="#607d8b" points="271.05,-131 268.25,-123 265.45,-131 271.05,-131"/>
<text text-anchor="middle" x="280.5" y="-146" font-family="Helvetica,sans-Serif" font-size="10.00">cached_len + block_table</text>
</g>
<!-- pool -->
<g id="node4" class="node">
<title>pool</title>
<path fill="#eceff1" stroke="#455a64" d="M319,-36C319,-36 260,-36 260,-36 254,-36 248,-30 248,-24 248,-24 248,-12 248,-12 248,-6 254,0 260,0 260,0 319,0 319,0 325,0 331,-6 331,-12 331,-12 331,-24 331,-24 331,-30 325,-36 319,-36"/>
<text text-anchor="middle" x="289.5" y="-21" font-family="Helvetica,sans-Serif" font-size="10.00">MHAKVCache</text>
<text text-anchor="middle" x="289.5" y="-10" font-family="Helvetica,sans-Serif" font-size="10.00">KV Pool</text>
</g>
<!-- qwen&#45;&gt;pool -->
<g id="edge5" class="edge">
<title>qwen&#45;&gt;pool</title>
<path fill="none" stroke="#607d8b" d="M289.5,-86.97C289.5,-86.97 289.5,-44 289.5,-44"/>
<polygon fill="#607d8b" stroke="#607d8b" points="292.3,-44 289.5,-36 286.7,-44 292.3,-44"/>
<text text-anchor="middle" x="330.5" y="-59" font-family="Helvetica,sans-Serif" font-size="10.00">write / gather KV</text>
</g>
</g>
</svg>
