<?xml version="1.0" encoding="UTF-8" standalone="no"?>
<!DOCTYPE svg PUBLIC "-//W3C//DTD SVG 1.1//EN"
 "http://www.w3.org/Graphics/SVG/1.1/DTD/svg11.dtd">
<!-- Generated by graphviz version 2.43.0 (0)
 -->
<!-- Title: PagedKVCache Pages: 1 -->
<svg width="2649pt" height="302pt"
 viewBox="0.00 0.00 2649.00 301.50" xmlns="http://www.w3.org/2000/svg" xmlns:xlink="http://www.w3.org/1999/xlink">
<g id="graph0" class="graph" transform="scale(1 1) rotate(0) translate(4 297.5)">
<title>PagedKVCache</title>
<polygon fill="white" stroke="transparent" points="-4,4 -4,-297.5 2645,-297.5 2645,4 -4,4"/>
<text text-anchor="middle" x="1320.5" y="-280.7" font-family="Helvetica,sans-Serif" font-size="11.00">Paged KV Cache (token squares + block_table mapping)</text>
<!-- logical -->
<g id="node1" class="node">
<title>logical</title>
<polygon fill="#f5f5f5" stroke="transparent" points="1.5,-95.5 1.5,-122.5 254.5,-122.5 254.5,-95.5 1.5,-95.5"/>
<polygon fill="none" stroke="black" points="1.5,-95.5 1.5,-122.5 254.5,-122.5 254.5,-95.5 1.5,-95.5"/>
<text text-anchor="start" x="7.5" y="-106.3" font-family="Helvetica,sans-Serif" font-weight="bold" font-size="14.00">Logical Tokens (request order)</text>
<polygon fill="#c8e6c9" stroke="transparent" points="1.5,-68.5 1.5,-95.5 69.5,-95.5 69.5,-68.5 1.5,-68.5"/>
<polygon fill="none" stroke="black" points="1.5,-68.5 1.5,-95.5 69.5,-95.5 69.5,-68.5 1.5,-68.5"/>
<text text-anchor="start" x="28" y="-78.3" font-family="Helvetica,sans-Serif" font-size="14.00">t0</text>
<polygon fill="#c8e6c9" stroke="transparent" points="69.5,-68.5 69.5,-95.5 117.5,-95.5 117.5,-68.5 69.5,-68.5"/>
<polygon fill="none" stroke="black" points="69.5,-68.5 69.5,-95.5 117.5,-95.5 117.5,-68.5 69.5,-68.5"/>
<text text-anchor="start" x="86" y="-78.3" font-family="Helvetica,sans-Serif" font-size="14.00">t1</text>
<polygon fill="#c8e6c9" stroke="transparent" points="117.5,-68.5 117.5,-95.5 154.5,-95.5 154.5,-68.5 117.5,-68.5"/>
<polygon fill="none" stroke="black" points="117.5,-68.5 117.5,-95.5 154.5,-95.5 154.5,-68.5 117.5,-68.5"/>
<text text-anchor="start" x="128.5" y="-78.3" font-family="Helvetica,sans-Serif" font-size="14.00">t2</text>
<polygon fill="#c8e6c9" stroke="transparent" points="154.5,-68.5 154.5,-95.5 186.5,-95.5 186.5,-68.5 154.5,-68.5"/>
<polygon fill="none" stroke="black" points="154.5,-68.5 154.5,-95.5 186.5,-95.5 186.5,-68.5 154.5,-68.5"/>
<text text-anchor="start" x="163" y="-78.3" font-family="Helvetica,sans-Serif" font-size="14.00">t3</text>
<polygon fill="#c8e6c9" stroke="transparent" points="186.5,-68.5 186.5,-95.5 220.5,-95.5 220.5,-68.5 186.5,-68.5"/>
<polygon fill="none" stroke="black" points="186.5,-68.5 186.5,-95.5 220.5,-95.5 220.5,-68.5 186.5,-68.5"/>
<text text-anchor="start" x="194" y="-78.3" font-family="Helvetica,sans-Serif" font-size="14.00">n0</text>
<polygon fill="#c8e6c9" stroke="transparent" points="220.5,-68.5 220.5,-95.5 254.5,-95.5 254.5,-68.5 220.5,-68.5"/>
<polygon fill="none" stroke="black" points="220.5,-68.5 220.5,-95.5 254.5,-95.5 254.5,-68.5 220.5,-68.5"/>
<text text-anchor="start" x="228" y="-78.3" font-family="Helvetica,sans-Serif" font-size="14.00">n1</text>
<polygon fill="none" stroke="black" points="0,-67.5 0,-123.5 255,-123.5 255,-67.5 0,-67.5"/>
</g>
<!-- table -->
<g id="node2" class="node">
<title>table</title>
<polygon fill="#f5f5f5" stroke="transparent" points="470.5,-162.5 470.5,-189.5 571.5,-189.5 571.5,-162.5 470.5,-162.5"/>
<polygon fill="none" stroke="black" points="470.5,-162.5 470.5,-189.5 571.5,-189.5 571.5,-162.5 470.5,-162.5"/>
<text text-anchor="start" x="476.5" y="-173.3" font-family="Helvetica,sans-Serif" font-weight="bold" font-size="14.00">block_table</text>
<polygon fill="none" stroke="black" points="470.5,-135.5 470.5,-162.5 516.5,-162.5 516.5,-135.5 470.5,-135.5"/>
<text text-anchor="start" x="488.5" y="-145.3" font-family="Helvetica,sans-Serif" font-size="14.00">0</text>
<polygon fill="none" stroke="black" points="516.5,-135.5 516.5,-162.5 571.5,-162.5 571.5,-135.5 516.5,-135.5"/>
<text text-anchor="start" x="539" y="-145.3" font-family="Helvetica,sans-Serif" font-size="14.00">3</text>
<polygon fill="none" stroke="black" points="470.5,-108.5 470.5,-135.5 516.5,-135.5 516.5,-108.5 470.5,-108.5"/>
<text text-anchor="start" x="488.5" y="-118.3" font-family="Helvetica,sans-Serif" font-size="14.00">1</text>
<polygon fill="none" stroke="black" points="516.5,-108.5 516.5,-135.5 571.5,-135.5 571.5,-108.5 516.5,-108.5"/>
<text text-anchor="start" x="539" y="-118.3" font-family="Helvetica,sans-Serif" font-size="14.00">7</text>
<polygon fill="none" stroke="black" points="470.5,-81.5 470.5,-108.5 516.5,-108.5 516.5,-81.5 470.5,-81.5"/>
<text text-anchor="start" x="488.5" y="-91.3" font-family="Helvetica,sans-Serif" font-size="14.00">2</text>
<polygon fill="none" stroke="black" points="516.5,-81.5 516.5,-108.5 571.5,-108.5 571.5,-81.5 516.5,-81.5"/>
<text text-anchor="start" x="539" y="-91.3" font-family="Helvetica,sans-Serif" font-size="14.00">2</text>
<polygon fill="none" stroke="black" points="470.5,-54.5 470.5,-81.5 516.5,-81.5 516.5,-54.5 470.5,-54.5"/>
<text text-anchor="start" x="488.5" y="-64.3" font-family="Helvetica,sans-Serif" font-size="14.00">3</text>
<polygon fill="none" stroke="black" points="516.5,-54.5 516.5,-81.5 571.5,-81.5 571.5,-54.5 516.5,-54.5"/>
<text text-anchor="start" x="534.5" y="-64.3" font-family="Helvetica,sans-Serif" font-size="14.00">12</text>
<polygon fill="none" stroke="black" points="470.5,-27.5 470.5,-54.5 516.5,-54.5 516.5,-27.5 470.5,-27.5"/>
<text text-anchor="start" x="488.5" y="-37.3" font-family="Helvetica,sans-Serif" font-size="14.00">4</text>
<polygon fill="none" stroke="black" points="516.5,-27.5 516.5,-54.5 571.5,-54.5 571.5,-27.5 516.5,-27.5"/>
<text text-anchor="start" x="539" y="-37.3" font-family="Helvetica,sans-Serif" font-size="14.00">9</text>
<polygon fill="none" stroke="black" points="470.5,-0.5 470.5,-27.5 516.5,-27.5 516.5,-0.5 470.5,-0.5"/>
<text text-anchor="start" x="488.5" y="-10.3" font-family="Helvetica,sans-Serif" font-size="14.00">5</text>
<polygon fill="none" stroke="black" points="516.5,-0.5 516.5,-27.5 571.5,-27.5 571.5,-0.5 516.5,-0.5"/>
<text text-anchor="start" x="534.5" y="-10.3" font-family="Helvetica,sans-Serif" font-size="14.00">15</text>
<polygon fill="none" stroke="black" points="469,0 469,-191 572,-191 572,0 469,0"/>
</g>
<!-- logical&#45;&gt;table -->
<g id="edge1" class="edge">
<title>logical&#45;&gt;table</title>
<path fill="none" stroke="#546e7a" d="M255.1,-95.5C255.1,-95.5 458.8,-95.5 458.8,-95.5"/>
<polygon fill="#546e7a" stroke="#546e7a" points="458.8,-99 468.8,-95.5 458.8,-92 458.8,-99"/>
<text text-anchor="middle" x="362" y="-99.3" font-family="Times,serif" font-size="14.00" fill="#455a64">logical idx &#45;&gt; page idx</text>
</g>
<!-- store_flow -->
<g id="node5" class="node">
<title>store_flow</title>
<path fill="#e8f5e9" stroke="#558b2f" d="M1177,-185.5C1177,-185.5 784,-185.5 784,-185.5 778,-185.5 772,-179.5 772,-173.5 772,-173.5 772,-129.5 772,-129.5 772,-123.5 778,-117.5 784,-117.5 784,-117.5 1177,-117.5 1177,-117.5 1183,-117.5 1189,-123.5 1189,-129.5 1189,-129.5 1189,-173.5 1189,-173.5 1189,-179.5 1183,-185.5 1177,-185.5"/>
<text text-anchor="middle" x="980.5" y="-170.3" font-family="Helvetica,sans-Serif" font-size="14.00">STORE flow</text>
<text text-anchor="middle" x="980.5" y="-155.3" font-family="Helvetica,sans-Serif" font-size="14.00">1) out_loc = block_table[cached_len:cached_len+seq_len]</text>
<text text-anchor="middle" x="980.5" y="-140.3" font-family="Helvetica,sans-Serif" font-size="14.00">2) MHAKVCache.store_kv(k, v, out_loc)</text>
<text text-anchor="middle" x="980.5" y="-125.3" font-family="Helvetica,sans-Serif" font-size="14.00">3) physical[out_loc] &lt;&#45; (k,v)</text>
</g>
<!-- table&#45;&gt;store_flow -->
<g id="edge2" class="edge">
<title>table&#45;&gt;store_flow</title>
<path fill="none" stroke="#2e7d32" d="M572.37,-151.5C572.37,-151.5 761.94,-151.5 761.94,-151.5"/>
<polygon fill="#2e7d32" stroke="#2e7d32" points="761.94,-155 771.94,-151.5 761.94,-148 761.94,-155"/>
<text text-anchor="middle" x="672" y="-140.3" font-family="Times,serif" font-size="14.00" fill="#2e7d32">provide out_loc slice</text>
</g>
<!-- load_flow -->
<g id="node6" class="node">
<title>load_flow</title>
<path fill="#e3f2fd" stroke="#1565c0" d="M2329,-129.5C2329,-129.5 2012,-129.5 2012,-129.5 2006,-129.5 2000,-123.5 2000,-117.5 2000,-117.5 2000,-73.5 2000,-73.5 2000,-67.5 2006,-61.5 2012,-61.5 2012,-61.5 2329,-61.5 2329,-61.5 2335,-61.5 2341,-67.5 2341,-73.5 2341,-73.5 2341,-117.5 2341,-117.5 2341,-123.5 2335,-129.5 2329,-129.5"/>
<text text-anchor="middle" x="2170.5" y="-114.3" font-family="Helvetica,sans-Serif" font-size="14.00">LOAD flow</text>
<text text-anchor="middle" x="2170.5" y="-99.3" font-family="Helvetica,sans-Serif" font-size="14.00">1) all_locs = block_table[:cached_len+seq_len]</text>
<text text-anchor="middle" x="2170.5" y="-84.3" font-family="Helvetica,sans-Serif" font-size="14.00">2) full_k = k_cache[layer][all_locs]</text>
<text text-anchor="middle" x="2170.5" y="-69.3" font-family="Helvetica,sans-Serif" font-size="14.00">3) full_v = v_cache[layer][all_locs]</text>
</g>
<!-- table&#45;&gt;load_flow -->
<g id="edge4" class="edge">
<title>table&#45;&gt;load_flow</title>
<path fill="none" stroke="#1565c0" d="M572.15,-89.5C572.15,-89.5 1989.69,-89.5 1989.69,-89.5"/>
<polygon fill="#1565c0" stroke="#1565c0" points="1989.69,-93 1999.69,-89.5 1989.69,-86 1989.69,-93"/>
<text text-anchor="middle" x="1290" y="-72.3" font-family="Times,serif" font-size="14.00" fill="#1565c0">provide all_locs slice</text>
</g>
<!-- physical -->
<g id="node3" class="node">
<title>physical</title>
<polygon fill="#f5f5f5" stroke="transparent" points="1392,-151.5 1392,-178.5 1798,-178.5 1798,-151.5 1392,-151.5"/>
<polygon fill="none" stroke="black" points="1392,-151.5 1392,-178.5 1798,-178.5 1798,-151.5 1392,-151.5"/>
<text text-anchor="start" x="1504.5" y="-162.3" font-family="Helvetica,sans-Serif" font-weight="bold" font-size="14.00">Physical KV Pool Pages</text>
<polygon fill="none" stroke="black" points="1392,-124.5 1392,-151.5 1414,-151.5 1414,-124.5 1392,-124.5"/>
<text text-anchor="start" x="1398" y="-134.3" font-family="Helvetica,sans-Serif" font-size="14.00">0</text>
<polygon fill="none" stroke="black" points="1414,-124.5 1414,-151.5 1436,-151.5 1436,-124.5 1414,-124.5"/>
<text text-anchor="start" x="1420" y="-134.3" font-family="Helvetica,sans-Serif" font-size="14.00">1</text>
<polygon fill="#ffe0b2" stroke="transparent" points="1436,-124.5 1436,-151.5 1458,-151.5 1458,-124.5 1436,-124.5"/>
<polygon fill="none" stroke="black" points="1436,-124.5 1436,-151.5 1458,-151.5 1458,-124.5 1436,-124.5"/>
<text text-anchor="start" x="1442" y="-134.3" font-family="Helvetica,sans-Serif" font-size="14.00">2</text>
<polygon fill="#ffe0b2" stroke="transparent" points="1458,-124.5 1458,-151.5 1480,-151.5 1480,-124.5 1458,-124.5"/>
<polygon fill="none" stroke="black" points="1458,-124.5 1458,-151.5 1480,-151.5 1480,-124.5 1458,-124.5"/>
<text text-anchor="start" x="1464" y="-134.3" font-family="Helvetica,sans-Serif" font-size="14.00">3</text>
<polygon fill="none" stroke="black" points="1480,-124.5 1480,-151.5 1502,-151.5 1502,-124.5 1480,-124.5"/>
<text text-anchor="start" x="1486" y="-134.3" font-family="Helvetica,sans-Serif" font-size="14.00">4</text>
<polygon fill="none" stroke="black" points="1502,-124.5 1502,-151.5 1524,-151.5 1524,-124.5 1502,-124.5"/>
<text text-anchor="start" x="1508" y="-134.3" font-family="Helvetica,sans-Serif" font-size="14.00">5</text>
<polygon fill="none" stroke="black" points="1524,-124.5 1524,-151.5 1546,-151.5 1546,-124.5 1524,-124.5"/>
<text text-anchor="start" x="1530" y="-134.3" font-family="Helvetica,sans-Serif" font-size="14.00">6</text>
<polygon fill="#ffe0b2" stroke="transparent" points="1546,-124.5 1546,-151.5 1568,-151.5 1568,-124.5 1546,-124.5"/>
<polygon fill="none" stroke="black" points="1546,-124.5 1546,-151.5 1568,-151.5 1568,-124.5 1546,-124.5"/>
<text text-anchor="start" x="1552" y="-134.3" font-family="Helvetica,sans-Serif" font-size="14.00">7</text>
<polygon fill="none" stroke="black" points="1568,-124.5 1568,-151.5 1590,-151.5 1590,-124.5 1568,-124.5"/>
<text text-anchor="start" x="1574" y="-134.3" font-family="Helvetica,sans-Serif" font-size="14.00">8</text>
<polygon fill="#ffe0b2" stroke="transparent" points="1590,-124.5 1590,-151.5 1612,-151.5 1612,-124.5 1590,-124.5"/>
<polygon fill="none" stroke="black" points="1590,-124.5 1590,-151.5 1612,-151.5 1612,-124.5 1590,-124.5"/>
<text text-anchor="start" x="1596" y="-134.3" font-family="Helvetica,sans-Serif" font-size="14.00">9</text>
<polygon fill="none" stroke="black" points="1612,-124.5 1612,-151.5 1643,-151.5 1643,-124.5 1612,-124.5"/>
<text text-anchor="start" x="1618" y="-134.3" font-family="Helvetica,sans-Serif" font-size="14.00">10</text>
<polygon fill="none" stroke="black" points="1643,-124.5 1643,-151.5 1674,-151.5 1674,-124.5 1643,-124.5"/>
<text text-anchor="start" x="1649" y="-134.3" font-family="Helvetica,sans-Serif" font-size="14.00">11</text>
<polygon fill="#ffe0b2" stroke="transparent" points="1674,-124.5 1674,-151.5 1705,-151.5 1705,-124.5 1674,-124.5"/>
<polygon fill="none" stroke="black" points="1674,-124.5 1674,-151.5 1705,-151.5 1705,-124.5 1674,-124.5"/>
<text text-anchor="start" x="1680" y="-134.3" font-family="Helvetica,sans-Serif" font-size="14.00">12</text>
<polygon fill="none" stroke="black" points="1705,-124.5 1705,-151.5 1736,-151.5 1736,-124.5 1705,-124.5"/>
<text text-anchor="start" x="1711" y="-134.3" font-family="Helvetica,sans-Serif" font-size="14.00">13</text>
<polygon fill="none" stroke="black" points="1736,-124.5 1736,-151.5 1767,-151.5 1767,-124.5 1736,-124.5"/>
<text text-anchor="start" x="1742" y="-134.3" font-family="Helvetica,sans-Serif" font-size="14.00">14</text>
<polygon fill="#ffe0b2" stroke="transparent" points="1767,-124.5 1767,-151.5 1798,-151.5 1798,-124.5 1767,-124.5"/>
<polygon fill="none" stroke="black" points="1767,-124.5 1767,-151.5 1798,-151.5 1798,-124.5 1767,-124.5"/>
<text text-anchor="start" x="1773" y="-134.3" font-family="Helvetica,sans-Serif" font-size="14.00">15</text>
<polygon fill="none" stroke="black" points="1391,-123.5 1391,-179.5 1799,-179.5 1799,-123.5 1391,-123.5"/>
</g>
<!-- physical&#45;&gt;load_flow -->
<g id="edge5" class="edge">
<title>physical&#45;&gt;load_flow</title>
<path fill="none" stroke="#1565c0" d="M1799.29,-154.5C1964.92,-154.5 2171,-154.5 2171,-154.5 2171,-154.5 2171,-139.82 2171,-139.82"/>
<polygon fill="#1565c0" stroke="#1565c0" points="2174.5,-139.82 2171,-129.82 2167.5,-139.82 2174.5,-139.82"/>
<text text-anchor="middle" x="1899.5" y="-140.3" font-family="Times,serif" font-size="14.00" fill="#1565c0">gather kv by all_locs</text>
</g>
<!-- free -->
<g id="node4" class="node">
<title>free</title>
<polygon fill="#f5f5f5" stroke="transparent" points="876.5,-245.5 876.5,-272.5 1084.5,-272.5 1084.5,-245.5 876.5,-245.5"/>
<polygon fill="none" stroke="black" points="876.5,-245.5 876.5,-272.5 1084.5,-272.5 1084.5,-245.5 876.5,-245.5"/>
<text text-anchor="start" x="942" y="-256.3" font-family="Helvetica,sans-Serif" font-weight="bold" font-size="14.00">free_slots</text>
<polygon fill="none" stroke="black" points="876.5,-218.5 876.5,-245.5 1084.5,-245.5 1084.5,-218.5 876.5,-218.5"/>
<text text-anchor="start" x="882.5" y="-228.3" font-family="Helvetica,sans-Serif" font-size="14.00">[0,1,4,5,6,8,10,11,13,14,...]</text>
<polygon fill="none" stroke="black" points="875.5,-217.5 875.5,-273.5 1085.5,-273.5 1085.5,-217.5 875.5,-217.5"/>
</g>
<!-- free&#45;&gt;physical -->
<g id="edge7" class="edge">
<title>free&#45;&gt;physical</title>
<path fill="none" stroke="#546e7a" d="M1085.79,-245.5C1261.39,-245.5 1595,-245.5 1595,-245.5 1595,-245.5 1595,-189.7 1595,-189.7"/>
<polygon fill="#546e7a" stroke="#546e7a" points="1598.5,-189.7 1595,-179.7 1591.5,-189.7 1598.5,-189.7"/>
<text text-anchor="middle" x="1290" y="-249.3" font-family="Times,serif" font-size="14.00" fill="#455a64">allocate/free pages</text>
</g>
<!-- store_flow&#45;&gt;physical -->
<g id="edge3" class="edge">
<title>store_flow&#45;&gt;physical</title>
<path fill="none" stroke="#2e7d32" d="M1189.4,-151.5C1189.4,-151.5 1380.84,-151.5 1380.84,-151.5"/>
<polygon fill="#2e7d32" stroke="#2e7d32" points="1380.84,-155 1390.84,-151.5 1380.84,-148 1380.84,-155"/>
<text text-anchor="middle" x="1290" y="-155.3" font-family="Times,serif" font-size="14.00" fill="#2e7d32">write kv by out_loc</text>
</g>
<!-- attn -->
<g id="node7" class="node">
<title>attn</title>
<path fill="#fff3e0" stroke="#ef6c00" d="M2629,-114.5C2629,-114.5 2489,-114.5 2489,-114.5 2483,-114.5 2477,-108.5 2477,-102.5 2477,-102.5 2477,-88.5 2477,-88.5 2477,-82.5 2483,-76.5 2489,-76.5 2489,-76.5 2629,-76.5 2629,-76.5 2635,-76.5 2641,-82.5 2641,-88.5 2641,-88.5 2641,-102.5 2641,-102.5 2641,-108.5 2635,-114.5 2629,-114.5"/>
<text text-anchor="middle" x="2559" y="-99.3" font-family="Helvetica,sans-Serif" font-size="14.00">Attention</text>
<text text-anchor="middle" x="2559" y="-84.3" font-family="Helvetica,sans-Serif" font-size="14.00">uses (q, full_k, full_v)</text>
</g>
<!-- load_flow&#45;&gt;attn -->
<g id="edge6" class="edge">
<title>load_flow&#45;&gt;attn</title>
<path fill="none" stroke="#ef6c00" d="M2341.18,-95.5C2341.18,-95.5 2466.97,-95.5 2466.97,-95.5"/>
<polygon fill="#ef6c00" stroke="#ef6c00" points="2466.97,-99 2476.97,-95.5 2466.97,-92 2466.97,-99"/>
<text text-anchor="middle" x="2409" y="-99.3" font-family="Times,serif" font-size="14.00" fill="#ef6c00">full_k/full_v</text>
</g>
</g>
</svg>
