<?xml version="1.0" encoding="UTF-8" standalone="no"?>
<!DOCTYPE svg PUBLIC "-//W3C//DTD SVG 1.1//EN"
 "http://www.w3.org/Graphics/SVG/1.1/DTD/svg11.dtd">
<!-- Generated by graphviz version 2.43.0 (0)
 -->
<!-- Title: PagedKVPrefillFlow Pages: 1 -->
<svg width="2457pt" height="203pt"
 viewBox="0.00 0.00 2457.00 202.50" xmlns="http://www.w3.org/2000/svg" xmlns:xlink="http://www.w3.org/1999/xlink">
<g id="graph0" class="graph" transform="scale(1 1) rotate(0) translate(4 198.5)">
<title>PagedKVPrefillFlow</title>
<polygon fill="white" stroke="transparent" points="-4,4 -4,-198.5 2453,-198.5 2453,4 -4,4"/>
<text text-anchor="middle" x="1224.5" y="-181.7" font-family="Helvetica,sans-Serif" font-size="11.00">Paged KV Cache Prefill Flow</text>
<!-- logical -->
<g id="node1" class="node">
<title>logical</title>
<polygon fill="#f5f5f5" stroke="transparent" points="1.5,-106 1.5,-133 164.5,-133 164.5,-106 1.5,-106"/>
<polygon fill="none" stroke="black" points="1.5,-106 1.5,-133 164.5,-133 164.5,-106 1.5,-106"/>
<text text-anchor="start" x="7.5" y="-116.8" font-family="Helvetica,sans-Serif" font-weight="bold" font-size="14.00">Prefill Input Tokens</text>
<polygon fill="#c8e6c9" stroke="transparent" points="1.5,-79 1.5,-106 55.5,-106 55.5,-79 1.5,-79"/>
<polygon fill="none" stroke="black" points="1.5,-79 1.5,-106 55.5,-106 55.5,-79 1.5,-79"/>
<text text-anchor="start" x="21" y="-88.8" font-family="Helvetica,sans-Serif" font-size="14.00">t0</text>
<polygon fill="#c8e6c9" stroke="transparent" points="55.5,-79 55.5,-106 96.5,-106 96.5,-79 55.5,-79"/>
<polygon fill="none" stroke="black" points="55.5,-79 55.5,-106 96.5,-106 96.5,-79 55.5,-79"/>
<text text-anchor="start" x="68.5" y="-88.8" font-family="Helvetica,sans-Serif" font-size="14.00">t1</text>
<polygon fill="#c8e6c9" stroke="transparent" points="96.5,-79 96.5,-106 130.5,-106 130.5,-79 96.5,-79"/>
<polygon fill="none" stroke="black" points="96.5,-79 96.5,-106 130.5,-106 130.5,-79 96.5,-79"/>
<text text-anchor="start" x="106" y="-88.8" font-family="Helvetica,sans-Serif" font-size="14.00">t2</text>
<polygon fill="#c8e6c9" stroke="transparent" points="130.5,-79 130.5,-106 164.5,-106 164.5,-79 130.5,-79"/>
<polygon fill="none" stroke="black" points="130.5,-79 130.5,-106 164.5,-106 164.5,-79 130.5,-79"/>
<text text-anchor="start" x="140" y="-88.8" font-family="Helvetica,sans-Serif" font-size="14.00">t3</text>
<polygon fill="none" stroke="black" points="0,-78 0,-134 165,-134 165,-78 0,-78"/>
</g>
<!-- table -->
<g id="node2" class="node">
<title>table</title>
<polygon fill="#f5f5f5" stroke="transparent" points="386.5,-146 386.5,-173 487.5,-173 487.5,-146 386.5,-146"/>
<polygon fill="none" stroke="black" points="386.5,-146 386.5,-173 487.5,-173 487.5,-146 386.5,-146"/>
<text text-anchor="start" x="392.5" y="-156.8" font-family="Helvetica,sans-Serif" font-weight="bold" font-size="14.00">block_table</text>
<polygon fill="none" stroke="black" points="386.5,-119 386.5,-146 432.5,-146 432.5,-119 386.5,-119"/>
<text text-anchor="start" x="404.5" y="-128.8" font-family="Helvetica,sans-Serif" font-size="14.00">0</text>
<polygon fill="none" stroke="black" points="432.5,-119 432.5,-146 487.5,-146 487.5,-119 432.5,-119"/>
<text text-anchor="start" x="455" y="-128.8" font-family="Helvetica,sans-Serif" font-size="14.00">3</text>
<polygon fill="none" stroke="black" points="386.5,-92 386.5,-119 432.5,-119 432.5,-92 386.5,-92"/>
<text text-anchor="start" x="404.5" y="-101.8" font-family="Helvetica,sans-Serif" font-size="14.00">1</text>
<polygon fill="none" stroke="black" points="432.5,-92 432.5,-119 487.5,-119 487.5,-92 432.5,-92"/>
<text text-anchor="start" x="455" y="-101.8" font-family="Helvetica,sans-Serif" font-size="14.00">7</text>
<polygon fill="none" stroke="black" points="386.5,-65 386.5,-92 432.5,-92 432.5,-65 386.5,-65"/>
<text text-anchor="start" x="404.5" y="-74.8" font-family="Helvetica,sans-Serif" font-size="14.00">2</text>
<polygon fill="none" stroke="black" points="432.5,-65 432.5,-92 487.5,-92 487.5,-65 432.5,-65"/>
<text text-anchor="start" x="455" y="-74.8" font-family="Helvetica,sans-Serif" font-size="14.00">2</text>
<polygon fill="none" stroke="black" points="386.5,-38 386.5,-65 432.5,-65 432.5,-38 386.5,-38"/>
<text text-anchor="start" x="404.5" y="-47.8" font-family="Helvetica,sans-Serif" font-size="14.00">3</text>
<polygon fill="none" stroke="black" points="432.5,-38 432.5,-65 487.5,-65 487.5,-38 432.5,-38"/>
<text text-anchor="start" x="450.5" y="-47.8" font-family="Helvetica,sans-Serif" font-size="14.00">12</text>
<polygon fill="none" stroke="black" points="385,-37.5 385,-174.5 488,-174.5 488,-37.5 385,-37.5"/>
</g>
<!-- logical&#45;&gt;table -->
<g id="edge1" class="edge">
<title>logical&#45;&gt;table</title>
<path fill="none" stroke="#546e7a" d="M165.05,-106C165.05,-106 374.85,-106 374.85,-106"/>
<polygon fill="#546e7a" stroke="#546e7a" points="374.85,-109.5 384.85,-106 374.85,-102.5 374.85,-109.5"/>
<text text-anchor="middle" x="275" y="-109.8" font-family="Times,serif" font-size="14.00" fill="#455a64">map logical &#45;&gt; physical</text>
</g>
<!-- outloc -->
<g id="node3" class="node">
<title>outloc</title>
<path fill="#e8f5e9" stroke="#558b2f" d="M801,-125C801,-125 675,-125 675,-125 669,-125 663,-119 663,-113 663,-113 663,-99 663,-99 663,-93 669,-87 675,-87 675,-87 801,-87 801,-87 807,-87 813,-93 813,-99 813,-99 813,-113 813,-113 813,-119 807,-125 801,-125"/>
<text text-anchor="middle" x="738" y="-109.8" font-family="Helvetica,sans-Serif" font-size="14.00">Prefill Write Indices</text>
<text text-anchor="middle" x="738" y="-94.8" font-family="Helvetica,sans-Serif" font-size="14.00">[3,7,2,12]</text>
</g>
<!-- table&#45;&gt;outloc -->
<g id="edge2" class="edge">
<title>table&#45;&gt;outloc</title>
<path fill="none" stroke="#2e7d32" d="M488.33,-106C488.33,-106 652.87,-106 652.87,-106"/>
<polygon fill="#2e7d32" stroke="#2e7d32" points="652.87,-109.5 662.87,-106 652.87,-102.5 652.87,-109.5"/>
<text text-anchor="middle" x="575.5" y="-109.8" font-family="Times,serif" font-size="14.00" fill="#2e7d32">select write slice</text>
</g>
<!-- store -->
<g id="node4" class="node">
<title>store</title>
<path fill="#e8f5e9" stroke="#2e7d32" d="M1126,-124C1126,-124 956,-124 956,-124 950,-124 944,-118 944,-112 944,-112 944,-100 944,-100 944,-94 950,-88 956,-88 956,-88 1126,-88 1126,-88 1132,-88 1138,-94 1138,-100 1138,-100 1138,-112 1138,-112 1138,-118 1132,-124 1126,-124"/>
<text text-anchor="middle" x="1041" y="-102.3" font-family="Helvetica,sans-Serif" font-size="14.00">Write KV for Prefill Tokens</text>
</g>
<!-- outloc&#45;&gt;store -->
<g id="edge3" class="edge">
<title>outloc&#45;&gt;store</title>
<path fill="none" stroke="#2e7d32" d="M813.29,-106C813.29,-106 933.74,-106 933.74,-106"/>
<polygon fill="#2e7d32" stroke="#2e7d32" points="933.74,-109.5 943.74,-106 933.74,-102.5 933.74,-109.5"/>
<text text-anchor="middle" x="865.5" y="-109.8" font-family="Times,serif" font-size="14.00" fill="#2e7d32">indices</text>
</g>
<!-- physical -->
<g id="node5" class="node">
<title>physical</title>
<polygon fill="#f5f5f5" stroke="transparent" points="1364,-54 1364,-81 1770,-81 1770,-54 1364,-54"/>
<polygon fill="none" stroke="black" points="1364,-54 1364,-81 1770,-81 1770,-54 1364,-54"/>
<text text-anchor="start" x="1476.5" y="-64.8" font-family="Helvetica,sans-Serif" font-weight="bold" font-size="14.00">Physical KV Pool Pages</text>
<polygon fill="none" stroke="black" points="1364,-27 1364,-54 1386,-54 1386,-27 1364,-27"/>
<text text-anchor="start" x="1370" y="-36.8" font-family="Helvetica,sans-Serif" font-size="14.00">0</text>
<polygon fill="none" stroke="black" points="1386,-27 1386,-54 1408,-54 1408,-27 1386,-27"/>
<text text-anchor="start" x="1392" y="-36.8" font-family="Helvetica,sans-Serif" font-size="14.00">1</text>
<polygon fill="#ffe0b2" stroke="transparent" points="1408,-27 1408,-54 1430,-54 1430,-27 1408,-27"/>
<polygon fill="none" stroke="black" points="1408,-27 1408,-54 1430,-54 1430,-27 1408,-27"/>
<text text-anchor="start" x="1414" y="-36.8" font-family="Helvetica,sans-Serif" font-size="14.00">2</text>
<polygon fill="#ffe0b2" stroke="transparent" points="1430,-27 1430,-54 1452,-54 1452,-27 1430,-27"/>
<polygon fill="none" stroke="black" points="1430,-27 1430,-54 1452,-54 1452,-27 1430,-27"/>
<text text-anchor="start" x="1436" y="-36.8" font-family="Helvetica,sans-Serif" font-size="14.00">3</text>
<polygon fill="none" stroke="black" points="1452,-27 1452,-54 1474,-54 1474,-27 1452,-27"/>
<text text-anchor="start" x="1458" y="-36.8" font-family="Helvetica,sans-Serif" font-size="14.00">4</text>
<polygon fill="none" stroke="black" points="1474,-27 1474,-54 1496,-54 1496,-27 1474,-27"/>
<text text-anchor="start" x="1480" y="-36.8" font-family="Helvetica,sans-Serif" font-size="14.00">5</text>
<polygon fill="none" stroke="black" points="1496,-27 1496,-54 1518,-54 1518,-27 1496,-27"/>
<text text-anchor="start" x="1502" y="-36.8" font-family="Helvetica,sans-Serif" font-size="14.00">6</text>
<polygon fill="#ffe0b2" stroke="transparent" points="1518,-27 1518,-54 1540,-54 1540,-27 1518,-27"/>
<polygon fill="none" stroke="black" points="1518,-27 1518,-54 1540,-54 1540,-27 1518,-27"/>
<text text-anchor="start" x="1524" y="-36.8" font-family="Helvetica,sans-Serif" font-size="14.00">7</text>
<polygon fill="none" stroke="black" points="1540,-27 1540,-54 1562,-54 1562,-27 1540,-27"/>
<text text-anchor="start" x="1546" y="-36.8" font-family="Helvetica,sans-Serif" font-size="14.00">8</text>
<polygon fill="none" stroke="black" points="1562,-27 1562,-54 1584,-54 1584,-27 1562,-27"/>
<text text-anchor="start" x="1568" y="-36.8" font-family="Helvetica,sans-Serif" font-size="14.00">9</text>
<polygon fill="none" stroke="black" points="1584,-27 1584,-54 1615,-54 1615,-27 1584,-27"/>
<text text-anchor="start" x="1590" y="-36.8" font-family="Helvetica,sans-Serif" font-size="14.00">10</text>
<polygon fill="none" stroke="black" points="1615,-27 1615,-54 1646,-54 1646,-27 1615,-27"/>
<text text-anchor="start" x="1621" y="-36.8" font-family="Helvetica,sans-Serif" font-size="14.00">11</text>
<polygon fill="#ffe0b2" stroke="transparent" points="1646,-27 1646,-54 1677,-54 1677,-27 1646,-27"/>
<polygon fill="none" stroke="black" points="1646,-27 1646,-54 1677,-54 1677,-27 1646,-27"/>
<text text-anchor="start" x="1652" y="-36.8" font-family="Helvetica,sans-Serif" font-size="14.00">12</text>
<polygon fill="none" stroke="black" points="1677,-27 1677,-54 1708,-54 1708,-27 1677,-27"/>
<text text-anchor="start" x="1683" y="-36.8" font-family="Helvetica,sans-Serif" font-size="14.00">13</text>
<polygon fill="none" stroke="black" points="1708,-27 1708,-54 1739,-54 1739,-27 1708,-27"/>
<text text-anchor="start" x="1714" y="-36.8" font-family="Helvetica,sans-Serif" font-size="14.00">14</text>
<polygon fill="none" stroke="black" points="1739,-27 1739,-54 1770,-54 1770,-27 1739,-27"/>
<text text-anchor="start" x="1745" y="-36.8" font-family="Helvetica,sans-Serif" font-size="14.00">15</text>
<polygon fill="none" stroke="black" points="1363,-26 1363,-82 1771,-82 1771,-26 1363,-26"/>
</g>
<!-- store&#45;&gt;physical -->
<g id="edge4" class="edge">
<title>store&#45;&gt;physical</title>
<path fill="none" stroke="#2e7d32" d="M1041,-87.93C1041,-78.54 1041,-69 1041,-69 1041,-69 1352.88,-69 1352.88,-69"/>
<polygon fill="#2e7d32" stroke="#2e7d32" points="1352.88,-72.5 1362.88,-69 1352.88,-65.5 1352.88,-72.5"/>
<text text-anchor="middle" x="1263.5" y="-96.8" font-family="Times,serif" font-size="14.00" fill="#2e7d32">write KV pages</text>
</g>
<!-- gather -->
<g id="node7" class="node">
<title>gather</title>
<path fill="#e3f2fd" stroke="#1565c0" d="M2148,-73C2148,-73 1978,-73 1978,-73 1972,-73 1966,-67 1966,-61 1966,-61 1966,-47 1966,-47 1966,-41 1972,-35 1978,-35 1978,-35 2148,-35 2148,-35 2154,-35 2160,-41 2160,-47 2160,-47 2160,-61 2160,-61 2160,-67 2154,-73 2148,-73"/>
<text text-anchor="middle" x="2063" y="-57.8" font-family="Helvetica,sans-Serif" font-size="14.00">Gather Full Prefill Context</text>
<text text-anchor="middle" x="2063" y="-42.8" font-family="Helvetica,sans-Serif" font-size="14.00">[t0,t1,t2,t3]</text>
</g>
<!-- physical&#45;&gt;gather -->
<g id="edge5" class="edge">
<title>physical&#45;&gt;gather</title>
<path fill="none" stroke="#1565c0" d="M1771.25,-54C1771.25,-54 1955.76,-54 1955.76,-54"/>
<polygon fill="#1565c0" stroke="#1565c0" points="1955.76,-57.5 1965.76,-54 1955.76,-50.5 1955.76,-57.5"/>
<text text-anchor="middle" x="1868.5" y="-57.8" font-family="Times,serif" font-size="14.00" fill="#1565c0">read mapped pages</text>
</g>
<!-- free -->
<g id="node6" class="node">
<title>free</title>
<polygon fill="#f5f5f5" stroke="transparent" points="919,-28 919,-55 1163,-55 1163,-28 919,-28"/>
<polygon fill="none" stroke="black" points="919,-28 919,-55 1163,-55 1163,-28 919,-28"/>
<text text-anchor="start" x="1002.5" y="-38.8" font-family="Helvetica,sans-Serif" font-weight="bold" font-size="14.00">free_slots</text>
<polygon fill="none" stroke="black" points="919,-1 919,-28 1163,-28 1163,-1 919,-1"/>
<text text-anchor="start" x="925" y="-10.8" font-family="Helvetica,sans-Serif" font-size="14.00">[0,1,4,5,6,8,9,10,11,13,14,15,...]</text>
<polygon fill="none" stroke="black" points="918,0 918,-56 1164,-56 1164,0 918,0"/>
</g>
<!-- free&#45;&gt;physical -->
<g id="edge7" class="edge">
<title>free&#45;&gt;physical</title>
<path fill="none" stroke="#546e7a" d="M1164.32,-41C1164.32,-41 1352.9,-41 1352.9,-41"/>
<polygon fill="#546e7a" stroke="#546e7a" points="1352.9,-44.5 1362.9,-41 1352.9,-37.5 1352.9,-44.5"/>
<text text-anchor="middle" x="1263.5" y="-31.8" font-family="Times,serif" font-size="14.00" fill="#455a64">allocate / free pages</text>
</g>
<!-- attn -->
<g id="node8" class="node">
<title>attn</title>
<path fill="#fff3e0" stroke="#ef6c00" d="M2437,-72C2437,-72 2339,-72 2339,-72 2333,-72 2327,-66 2327,-60 2327,-60 2327,-48 2327,-48 2327,-42 2333,-36 2339,-36 2339,-36 2437,-36 2437,-36 2443,-36 2449,-42 2449,-48 2449,-48 2449,-60 2449,-60 2449,-66 2443,-72 2437,-72"/>
<text text-anchor="middle" x="2388" y="-50.3" font-family="Helvetica,sans-Serif" font-size="14.00">Prefill Attention</text>
</g>
<!-- gather&#45;&gt;attn -->
<g id="edge6" class="edge">
<title>gather&#45;&gt;attn</title>
<path fill="none" stroke="#ef6c00" d="M2160.07,-54C2160.07,-54 2316.71,-54 2316.71,-54"/>
<polygon fill="#ef6c00" stroke="#ef6c00" points="2316.71,-57.5 2326.71,-54 2316.71,-50.5 2316.71,-57.5"/>
<text text-anchor="middle" x="2243.5" y="-57.8" font-family="Times,serif" font-size="14.00" fill="#ef6c00">context window</text>
</g>
</g>
</svg>
