<?xml version="1.0" encoding="UTF-8" standalone="no"?>
<!DOCTYPE svg PUBLIC "-//W3C//DTD SVG 1.1//EN"
 "http://www.w3.org/Graphics/SVG/1.1/DTD/svg11.dtd">
<!-- Generated by graphviz version 2.43.0 (0)
 -->
<!-- Title: PagedKVDecodeFlow Pages: 1 -->
<svg width="2343pt" height="219pt"
 viewBox="0.00 0.00 2343.00 219.00" xmlns="http://www.w3.org/2000/svg" xmlns:xlink="http://www.w3.org/1999/xlink">
<g id="graph0" class="graph" transform="scale(1 1) rotate(0) translate(4 215)">
<title>PagedKVDecodeFlow</title>
<polygon fill="white" stroke="transparent" points="-4,4 -4,-215 2339,-215 2339,4 -4,4"/>
<text text-anchor="middle" x="1167.5" y="-198.2" font-family="Helvetica,sans-Serif" font-size="11.00">Paged KV Cache Decode Flow</text>
<!-- logical -->
<g id="node1" class="node">
<title>logical</title>
<polygon fill="#f5f5f5" stroke="transparent" points="1,-95.5 1,-122.5 293,-122.5 293,-95.5 1,-95.5"/>
<polygon fill="none" stroke="black" points="1,-95.5 1,-122.5 293,-122.5 293,-95.5 1,-95.5"/>
<text text-anchor="start" x="7" y="-106.3" font-family="Helvetica,sans-Serif" font-weight="bold" font-size="14.00">Decode Step (History + New Token)</text>
<polygon fill="#c8e6c9" stroke="transparent" points="1,-68.5 1,-95.5 88,-95.5 88,-68.5 1,-68.5"/>
<polygon fill="none" stroke="black" points="1,-68.5 1,-95.5 88,-95.5 88,-68.5 1,-68.5"/>
<text text-anchor="start" x="37" y="-78.3" font-family="Helvetica,sans-Serif" font-size="14.00">t0</text>
<polygon fill="#c8e6c9" stroke="transparent" points="88,-68.5 88,-95.5 145,-95.5 145,-68.5 88,-68.5"/>
<polygon fill="none" stroke="black" points="88,-68.5 88,-95.5 145,-95.5 145,-68.5 88,-68.5"/>
<text text-anchor="start" x="109" y="-78.3" font-family="Helvetica,sans-Serif" font-size="14.00">t1</text>
<polygon fill="#c8e6c9" stroke="transparent" points="145,-68.5 145,-95.5 187,-95.5 187,-68.5 145,-68.5"/>
<polygon fill="none" stroke="black" points="145,-68.5 145,-95.5 187,-95.5 187,-68.5 145,-68.5"/>
<text text-anchor="start" x="158.5" y="-78.3" font-family="Helvetica,sans-Serif" font-size="14.00">t2</text>
<polygon fill="#c8e6c9" stroke="transparent" points="187,-68.5 187,-95.5 222,-95.5 222,-68.5 187,-68.5"/>
<polygon fill="none" stroke="black" points="187,-68.5 187,-95.5 222,-95.5 222,-68.5 187,-68.5"/>
<text text-anchor="start" x="197" y="-78.3" font-family="Helvetica,sans-Serif" font-size="14.00">t3</text>
<polygon fill="#c8e6c9" stroke="transparent" points="222,-68.5 222,-95.5 257,-95.5 257,-68.5 222,-68.5"/>
<polygon fill="none" stroke="black" points="222,-68.5 222,-95.5 257,-95.5 257,-68.5 222,-68.5"/>
<text text-anchor="start" x="230" y="-78.3" font-family="Helvetica,sans-Serif" font-size="14.00">n0</text>
<polygon fill="#fff9c4" stroke="transparent" points="257,-68.5 257,-95.5 293,-95.5 293,-68.5 257,-68.5"/>
<polygon fill="none" stroke="black" points="257,-68.5 257,-95.5 293,-95.5 293,-68.5 257,-68.5"/>
<text text-anchor="start" x="265" y="-79.3" font-family="Helvetica,sans-Serif" font-weight="bold" font-size="14.00">n1</text>
<polygon fill="none" stroke="black" points="0,-67.5 0,-123.5 294,-123.5 294,-67.5 0,-67.5"/>
</g>
<!-- table -->
<g id="node2" class="node">
<title>table</title>
<polygon fill="#f5f5f5" stroke="transparent" points="515.5,-162.5 515.5,-189.5 616.5,-189.5 616.5,-162.5 515.5,-162.5"/>
<polygon fill="none" stroke="black" points="515.5,-162.5 515.5,-189.5 616.5,-189.5 616.5,-162.5 515.5,-162.5"/>
<text text-anchor="start" x="521.5" y="-173.3" font-family="Helvetica,sans-Serif" font-weight="bold" font-size="14.00">block_table</text>
<polygon fill="none" stroke="black" points="515.5,-135.5 515.5,-162.5 561.5,-162.5 561.5,-135.5 515.5,-135.5"/>
<text text-anchor="start" x="533.5" y="-145.3" font-family="Helvetica,sans-Serif" font-size="14.00">0</text>
<polygon fill="none" stroke="black" points="561.5,-135.5 561.5,-162.5 616.5,-162.5 616.5,-135.5 561.5,-135.5"/>
<text text-anchor="start" x="584" y="-145.3" font-family="Helvetica,sans-Serif" font-size="14.00">3</text>
<polygon fill="none" stroke="black" points="515.5,-108.5 515.5,-135.5 561.5,-135.5 561.5,-108.5 515.5,-108.5"/>
<text text-anchor="start" x="533.5" y="-118.3" font-family="Helvetica,sans-Serif" font-size="14.00">1</text>
<polygon fill="none" stroke="black" points="561.5,-108.5 561.5,-135.5 616.5,-135.5 616.5,-108.5 561.5,-108.5"/>
<text text-anchor="start" x="584" y="-118.3" font-family="Helvetica,sans-Serif" font-size="14.00">7</text>
<polygon fill="none" stroke="black" points="515.5,-81.5 515.5,-108.5 561.5,-108.5 561.5,-81.5 515.5,-81.5"/>
<text text-anchor="start" x="533.5" y="-91.3" font-family="Helvetica,sans-Serif" font-size="14.00">2</text>
<polygon fill="none" stroke="black" points="561.5,-81.5 561.5,-108.5 616.5,-108.5 616.5,-81.5 561.5,-81.5"/>
<text text-anchor="start" x="584" y="-91.3" font-family="Helvetica,sans-Serif" font-size="14.00">2</text>
<polygon fill="none" stroke="black" points="515.5,-54.5 515.5,-81.5 561.5,-81.5 561.5,-54.5 515.5,-54.5"/>
<text text-anchor="start" x="533.5" y="-64.3" font-family="Helvetica,sans-Serif" font-size="14.00">3</text>
<polygon fill="none" stroke="black" points="561.5,-54.5 561.5,-81.5 616.5,-81.5 616.5,-54.5 561.5,-54.5"/>
<text text-anchor="start" x="579.5" y="-64.3" font-family="Helvetica,sans-Serif" font-size="14.00">12</text>
<polygon fill="none" stroke="black" points="515.5,-27.5 515.5,-54.5 561.5,-54.5 561.5,-27.5 515.5,-27.5"/>
<text text-anchor="start" x="533.5" y="-37.3" font-family="Helvetica,sans-Serif" font-size="14.00">4</text>
<polygon fill="none" stroke="black" points="561.5,-27.5 561.5,-54.5 616.5,-54.5 616.5,-27.5 561.5,-27.5"/>
<text text-anchor="start" x="584" y="-37.3" font-family="Helvetica,sans-Serif" font-size="14.00">9</text>
<polygon fill="none" stroke="black" points="515.5,-0.5 515.5,-27.5 561.5,-27.5 561.5,-0.5 515.5,-0.5"/>
<text text-anchor="start" x="533.5" y="-10.3" font-family="Helvetica,sans-Serif" font-size="14.00">5</text>
<polygon fill="none" stroke="black" points="561.5,-0.5 561.5,-27.5 616.5,-27.5 616.5,-0.5 561.5,-0.5"/>
<text text-anchor="start" x="579.5" y="-10.3" font-family="Helvetica,sans-Serif" font-size="14.00">15</text>
<polygon fill="none" stroke="black" points="514,0 514,-191 617,-191 617,0 514,0"/>
</g>
<!-- logical&#45;&gt;table -->
<g id="edge1" class="edge">
<title>logical&#45;&gt;table</title>
<path fill="none" stroke="#546e7a" d="M294.25,-95.5C294.25,-95.5 503.75,-95.5 503.75,-95.5"/>
<polygon fill="#546e7a" stroke="#546e7a" points="503.75,-99 513.75,-95.5 503.75,-92 503.75,-99"/>
<text text-anchor="middle" x="404" y="-99.3" font-family="Times,serif" font-size="14.00" fill="#455a64">map logical &#45;&gt; physical</text>
</g>
<!-- write_idx -->
<g id="node3" class="node">
<title>write_idx</title>
<path fill="#e8f5e9" stroke="#2e7d32" d="M1010,-156.5C1010,-156.5 881,-156.5 881,-156.5 875,-156.5 869,-150.5 869,-144.5 869,-144.5 869,-130.5 869,-130.5 869,-124.5 875,-118.5 881,-118.5 881,-118.5 1010,-118.5 1010,-118.5 1016,-118.5 1022,-124.5 1022,-130.5 1022,-130.5 1022,-144.5 1022,-144.5 1022,-150.5 1016,-156.5 1010,-156.5"/>
<text text-anchor="middle" x="945.5" y="-141.3" font-family="Helvetica,sans-Serif" font-size="14.00">Decode Write Index</text>
<text text-anchor="middle" x="945.5" y="-126.3" font-family="Helvetica,sans-Serif" font-size="14.00">[15]</text>
</g>
<!-- table&#45;&gt;write_idx -->
<g id="edge2" class="edge">
<title>table&#45;&gt;write_idx</title>
<path fill="none" stroke="#2e7d32" d="M617.14,-137.5C617.14,-137.5 858.65,-137.5 858.65,-137.5"/>
<polygon fill="#2e7d32" stroke="#2e7d32" points="858.65,-141 868.65,-137.5 858.65,-134 858.65,-141"/>
<text text-anchor="middle" x="743" y="-133.3" font-family="Times,serif" font-size="14.00" fill="#2e7d32">append new token mapping</text>
</g>
<!-- alllocs -->
<g id="node4" class="node">
<title>alllocs</title>
<path fill="#e3f2fd" stroke="#1565c0" d="M1211,-85.5C1211,-85.5 1061,-85.5 1061,-85.5 1055,-85.5 1049,-79.5 1049,-73.5 1049,-73.5 1049,-59.5 1049,-59.5 1049,-53.5 1055,-47.5 1061,-47.5 1061,-47.5 1211,-47.5 1211,-47.5 1217,-47.5 1223,-53.5 1223,-59.5 1223,-59.5 1223,-73.5 1223,-73.5 1223,-79.5 1217,-85.5 1211,-85.5"/>
<text text-anchor="middle" x="1136" y="-70.3" font-family="Helvetica,sans-Serif" font-size="14.00">Decode Gather Indices</text>
<text text-anchor="middle" x="1136" y="-55.3" font-family="Helvetica,sans-Serif" font-size="14.00">[3,7,2,12,9,15]</text>
</g>
<!-- table&#45;&gt;alllocs -->
<g id="edge4" class="edge">
<title>table&#45;&gt;alllocs</title>
<path fill="none" stroke="#1565c0" d="M617.13,-66.5C617.13,-66.5 1038.8,-66.5 1038.8,-66.5"/>
<polygon fill="#1565c0" stroke="#1565c0" points="1038.8,-70 1048.8,-66.5 1038.8,-63 1038.8,-70"/>
<text text-anchor="middle" x="743" y="-73.3" font-family="Times,serif" font-size="14.00" fill="#1565c0">history + new token</text>
</g>
<!-- physical -->
<g id="node5" class="node">
<title>physical</title>
<polygon fill="#f5f5f5" stroke="transparent" points="1251,-139.5 1251,-166.5 1657,-166.5 1657,-139.5 1251,-139.5"/>
<polygon fill="none" stroke="black" points="1251,-139.5 1251,-166.5 1657,-166.5 1657,-139.5 1251,-139.5"/>
<text text-anchor="start" x="1363.5" y="-150.3" font-family="Helvetica,sans-Serif" font-weight="bold" font-size="14.00">Physical KV Pool Pages</text>
<polygon fill="none" stroke="black" points="1251,-112.5 1251,-139.5 1273,-139.5 1273,-112.5 1251,-112.5"/>
<text text-anchor="start" x="1257" y="-122.3" font-family="Helvetica,sans-Serif" font-size="14.00">0</text>
<polygon fill="none" stroke="black" points="1273,-112.5 1273,-139.5 1295,-139.5 1295,-112.5 1273,-112.5"/>
<text text-anchor="start" x="1279" y="-122.3" font-family="Helvetica,sans-Serif" font-size="14.00">1</text>
<polygon fill="#ffe0b2" stroke="transparent" points="1295,-112.5 1295,-139.5 1317,-139.5 1317,-112.5 1295,-112.5"/>
<polygon fill="none" stroke="black" points="1295,-112.5 1295,-139.5 1317,-139.5 1317,-112.5 1295,-112.5"/>
<text text-anchor="start" x="1301" y="-122.3" font-family="Helvetica,sans-Serif" font-size="14.00">2</text>
<polygon fill="#ffe0b2" stroke="transparent" points="1317,-112.5 1317,-139.5 1339,-139.5 1339,-112.5 1317,-112.5"/>
<polygon fill="none" stroke="black" points="1317,-112.5 1317,-139.5 1339,-139.5 1339,-112.5 1317,-112.5"/>
<text text-anchor="start" x="1323" y="-122.3" font-family="Helvetica,sans-Serif" font-size="14.00">3</text>
<polygon fill="none" stroke="black" points="1339,-112.5 1339,-139.5 1361,-139.5 1361,-112.5 1339,-112.5"/>
<text text-anchor="start" x="1345" y="-122.3" font-family="Helvetica,sans-Serif" font-size="14.00">4</text>
<polygon fill="none" stroke="black" points="1361,-112.5 1361,-139.5 1383,-139.5 1383,-112.5 1361,-112.5"/>
<text text-anchor="start" x="1367" y="-122.3" font-family="Helvetica,sans-Serif" font-size="14.00">5</text>
<polygon fill="none" stroke="black" points="1383,-112.5 1383,-139.5 1405,-139.5 1405,-112.5 1383,-112.5"/>
<text text-anchor="start" x="1389" y="-122.3" font-family="Helvetica,sans-Serif" font-size="14.00">6</text>
<polygon fill="#ffe0b2" stroke="transparent" points="1405,-112.5 1405,-139.5 1427,-139.5 1427,-112.5 1405,-112.5"/>
<polygon fill="none" stroke="black" points="1405,-112.5 1405,-139.5 1427,-139.5 1427,-112.5 1405,-112.5"/>
<text text-anchor="start" x="1411" y="-122.3" font-family="Helvetica,sans-Serif" font-size="14.00">7</text>
<polygon fill="none" stroke="black" points="1427,-112.5 1427,-139.5 1449,-139.5 1449,-112.5 1427,-112.5"/>
<text text-anchor="start" x="1433" y="-122.3" font-family="Helvetica,sans-Serif" font-size="14.00">8</text>
<polygon fill="#ffe0b2" stroke="transparent" points="1449,-112.5 1449,-139.5 1471,-139.5 1471,-112.5 1449,-112.5"/>
<polygon fill="none" stroke="black" points="1449,-112.5 1449,-139.5 1471,-139.5 1471,-112.5 1449,-112.5"/>
<text text-anchor="start" x="1455" y="-122.3" font-family="Helvetica,sans-Serif" font-size="14.00">9</text>
<polygon fill="none" stroke="black" points="1471,-112.5 1471,-139.5 1502,-139.5 1502,-112.5 1471,-112.5"/>
<text text-anchor="start" x="1477" y="-122.3" font-family="Helvetica,sans-Serif" font-size="14.00">10</text>
<polygon fill="none" stroke="black" points="1502,-112.5 1502,-139.5 1533,-139.5 1533,-112.5 1502,-112.5"/>
<text text-anchor="start" x="1508" y="-122.3" font-family="Helvetica,sans-Serif" font-size="14.00">11</text>
<polygon fill="#ffe0b2" stroke="transparent" points="1533,-112.5 1533,-139.5 1564,-139.5 1564,-112.5 1533,-112.5"/>
<polygon fill="none" stroke="black" points="1533,-112.5 1533,-139.5 1564,-139.5 1564,-112.5 1533,-112.5"/>
<text text-anchor="start" x="1539" y="-122.3" font-family="Helvetica,sans-Serif" font-size="14.00">12</text>
<polygon fill="none" stroke="black" points="1564,-112.5 1564,-139.5 1595,-139.5 1595,-112.5 1564,-112.5"/>
<text text-anchor="start" x="1570" y="-122.3" font-family="Helvetica,sans-Serif" font-size="14.00">13</text>
<polygon fill="none" stroke="black" points="1595,-112.5 1595,-139.5 1626,-139.5 1626,-112.5 1595,-112.5"/>
<text text-anchor="start" x="1601" y="-122.3" font-family="Helvetica,sans-Serif" font-size="14.00">14</text>
<polygon fill="#ffe0b2" stroke="transparent" points="1626,-112.5 1626,-139.5 1657,-139.5 1657,-112.5 1626,-112.5"/>
<polygon fill="none" stroke="black" points="1626,-112.5 1626,-139.5 1657,-139.5 1657,-112.5 1626,-112.5"/>
<text text-anchor="start" x="1632" y="-122.3" font-family="Helvetica,sans-Serif" font-size="14.00">15</text>
<polygon fill="none" stroke="black" points="1250,-111.5 1250,-167.5 1658,-167.5 1658,-111.5 1250,-111.5"/>
</g>
<!-- write_idx&#45;&gt;physical -->
<g id="edge3" class="edge">
<title>write_idx&#45;&gt;physical</title>
<path fill="none" stroke="#2e7d32" d="M1022.18,-137.5C1022.18,-137.5 1239.92,-137.5 1239.92,-137.5"/>
<polygon fill="#2e7d32" stroke="#2e7d32" points="1239.92,-141 1249.92,-137.5 1239.92,-134 1239.92,-141"/>
<text text-anchor="middle" x="1136" y="-142.3" font-family="Times,serif" font-size="14.00" fill="#2e7d32">write new KV page</text>
</g>
<!-- gather -->
<g id="node6" class="node">
<title>gather</title>
<path fill="#e3f2fd" stroke="#1565c0" d="M2020,-110.5C2020,-110.5 1865,-110.5 1865,-110.5 1859,-110.5 1853,-104.5 1853,-98.5 1853,-98.5 1853,-84.5 1853,-84.5 1853,-78.5 1859,-72.5 1865,-72.5 1865,-72.5 2020,-72.5 2020,-72.5 2026,-72.5 2032,-78.5 2032,-84.5 2032,-84.5 2032,-98.5 2032,-98.5 2032,-104.5 2026,-110.5 2020,-110.5"/>
<text text-anchor="middle" x="1942.5" y="-95.3" font-family="Helvetica,sans-Serif" font-size="14.00">Gather Decode Context</text>
<text text-anchor="middle" x="1942.5" y="-80.3" font-family="Helvetica,sans-Serif" font-size="14.00">[t0,t1,t2,t3,n0,n1]</text>
</g>
<!-- alllocs&#45;&gt;gather -->
<g id="edge5" class="edge">
<title>alllocs&#45;&gt;gather</title>
<path fill="none" stroke="#1565c0" d="M1223.08,-79C1223.08,-79 1842.72,-79 1842.72,-79"/>
<polygon fill="#1565c0" stroke="#1565c0" points="1842.72,-82.5 1852.72,-79 1842.72,-75.5 1842.72,-82.5"/>
<text text-anchor="middle" x="1454" y="-68.3" font-family="Times,serif" font-size="14.00" fill="#1565c0">indices</text>
</g>
<!-- physical&#45;&gt;gather -->
<g id="edge6" class="edge">
<title>physical&#45;&gt;gather</title>
<path fill="none" stroke="#1565c0" d="M1658.19,-139.5C1792.28,-139.5 1943,-139.5 1943,-139.5 1943,-139.5 1943,-120.75 1943,-120.75"/>
<polygon fill="#1565c0" stroke="#1565c0" points="1946.5,-120.75 1943,-110.75 1939.5,-120.75 1946.5,-120.75"/>
<text text-anchor="middle" x="1755.5" y="-132.3" font-family="Times,serif" font-size="14.00" fill="#1565c0">read mapped pages</text>
</g>
<!-- attn -->
<g id="node7" class="node">
<title>attn</title>
<path fill="#fff3e0" stroke="#ef6c00" d="M2323,-109.5C2323,-109.5 2211,-109.5 2211,-109.5 2205,-109.5 2199,-103.5 2199,-97.5 2199,-97.5 2199,-85.5 2199,-85.5 2199,-79.5 2205,-73.5 2211,-73.5 2211,-73.5 2323,-73.5 2323,-73.5 2329,-73.5 2335,-79.5 2335,-85.5 2335,-85.5 2335,-97.5 2335,-97.5 2335,-103.5 2329,-109.5 2323,-109.5"/>
<text text-anchor="middle" x="2267" y="-87.8" font-family="Helvetica,sans-Serif" font-size="14.00">Decode Attention</text>
</g>
<!-- gather&#45;&gt;attn -->
<g id="edge7" class="edge">
<title>gather&#45;&gt;attn</title>
<path fill="none" stroke="#ef6c00" d="M2032.03,-91.5C2032.03,-91.5 2188.86,-91.5 2188.86,-91.5"/>
<polygon fill="#ef6c00" stroke="#ef6c00" points="2188.86,-95 2198.86,-91.5 2188.86,-88 2188.86,-95"/>
<text text-anchor="middle" x="2115.5" y="-95.3" font-family="Times,serif" font-size="14.00" fill="#ef6c00">context window</text>
</g>
</g>
</svg>
