<?xml version="1.0" encoding="UTF-8" standalone="no"?>
<!DOCTYPE svg PUBLIC "-//W3C//DTD SVG 1.1//EN"
 "http://www.w3.org/Graphics/SVG/1.1/DTD/svg11.dtd">
<!-- Generated by graphviz version 2.43.0 (0)
 -->
<!-- Title: PreallocatedKVCache Pages: 1 -->
<svg width="252pt" height="294pt"
 viewBox="0.00 0.00 252.00 294.00" xmlns="http://www.w3.org/2000/svg" xmlns:xlink="http://www.w3.org/1999/xlink">
<g id="graph0" class="graph" transform="scale(1 1) rotate(0) translate(4 290)">
<title>PreallocatedKVCache</title>
<polygon fill="white" stroke="transparent" points="-4,4 -4,-290 248,-290 248,4 -4,4"/>
<text text-anchor="middle" x="122" y="-273.2" font-family="Helvetica,sans-Serif" font-size="11.00">Preallocated KV Cache (token squares)</text>
<!-- s0 -->
<g id="node1" class="node">
<title>s0</title>
<polygon fill="#f5f5f5" stroke="transparent" points="1,-240 1,-265 243,-265 243,-240 1,-240"/>
<polygon fill="none" stroke="black" points="1,-240 1,-265 243,-265 243,-240 1,-240"/>
<text text-anchor="start" x="6" y="-249.8" font-family="Helvetica,sans-Serif" font-weight="bold" font-size="14.00">Allocate once</text>
<text text-anchor="start" x="112" y="-249.8" font-family="Helvetica,sans-Serif" font-size="14.00"> (max_seq_len=8)</text>
<polygon fill="#e3f2fd" stroke="transparent" points="1,-215 1,-240 77,-240 77,-215 1,-215"/>
<polygon fill="none" stroke="black" points="1,-215 1,-240 77,-240 77,-215 1,-215"/>
<text text-anchor="start" x="36.5" y="-223.8" font-family="Helvetica,sans-Serif" font-size="14.00">.</text>
<polygon fill="#e3f2fd" stroke="transparent" points="77,-215 77,-240 122,-240 122,-215 77,-215"/>
<polygon fill="none" stroke="black" points="77,-215 77,-240 122,-240 122,-215 77,-215"/>
<text text-anchor="start" x="97" y="-223.8" font-family="Helvetica,sans-Serif" font-size="14.00">.</text>
<polygon fill="#e3f2fd" stroke="transparent" points="122,-215 122,-240 152,-240 152,-215 122,-215"/>
<polygon fill="none" stroke="black" points="122,-215 122,-240 152,-240 152,-215 122,-215"/>
<text text-anchor="start" x="134.5" y="-223.8" font-family="Helvetica,sans-Serif" font-size="14.00">.</text>
<polygon fill="#e3f2fd" stroke="transparent" points="152,-215 152,-240 175,-240 175,-215 152,-215"/>
<polygon fill="none" stroke="black" points="152,-215 152,-240 175,-240 175,-215 152,-215"/>
<text text-anchor="start" x="161" y="-223.8" font-family="Helvetica,sans-Serif" font-size="14.00">.</text>
<polygon fill="#e3f2fd" stroke="transparent" points="175,-215 175,-240 194,-240 194,-215 175,-215"/>
<polygon fill="none" stroke="black" points="175,-215 175,-240 194,-240 194,-215 175,-215"/>
<text text-anchor="start" x="182" y="-223.8" font-family="Helvetica,sans-Serif" font-size="14.00">.</text>
<polygon fill="#e3f2fd" stroke="transparent" points="194,-215 194,-240 211,-240 211,-215 194,-215"/>
<polygon fill="none" stroke="black" points="194,-215 194,-240 211,-240 211,-215 194,-215"/>
<text text-anchor="start" x="200" y="-223.8" font-family="Helvetica,sans-Serif" font-size="14.00">.</text>
<polygon fill="#e3f2fd" stroke="transparent" points="211,-215 211,-240 227,-240 227,-215 211,-215"/>
<polygon fill="none" stroke="black" points="211,-215 211,-240 227,-240 227,-215 211,-215"/>
<text text-anchor="start" x="216.5" y="-223.8" font-family="Helvetica,sans-Serif" font-size="14.00">.</text>
<polygon fill="#e3f2fd" stroke="transparent" points="227,-215 227,-240 243,-240 243,-215 227,-215"/>
<polygon fill="none" stroke="black" points="227,-215 227,-240 243,-240 243,-215 227,-215"/>
<text text-anchor="start" x="232.5" y="-223.8" font-family="Helvetica,sans-Serif" font-size="14.00">.</text>
<polygon fill="none" stroke="black" points="0,-214 0,-266 244,-266 244,-214 0,-214"/>
</g>
<!-- s1 -->
<g id="node2" class="node">
<title>s1</title>
<polygon fill="#f5f5f5" stroke="transparent" points="42,-133 42,-158 202,-158 202,-133 42,-133"/>
<polygon fill="none" stroke="black" points="42,-133 42,-158 202,-158 202,-133 42,-133"/>
<text text-anchor="start" x="66" y="-142.8" font-family="Helvetica,sans-Serif" font-weight="bold" font-size="14.00">After prefill=4</text>
<polygon fill="#c8e6c9" stroke="transparent" points="42,-108 42,-133 67,-133 67,-108 42,-108"/>
<polygon fill="none" stroke="black" points="42,-108 42,-133 67,-133 67,-108 42,-108"/>
<text text-anchor="start" x="47" y="-116.8" font-family="Helvetica,sans-Serif" font-size="14.00">t0</text>
<polygon fill="#c8e6c9" stroke="transparent" points="67,-108 67,-133 92,-133 92,-108 67,-108"/>
<polygon fill="none" stroke="black" points="67,-108 67,-133 92,-133 92,-108 67,-108"/>
<text text-anchor="start" x="72" y="-116.8" font-family="Helvetica,sans-Serif" font-size="14.00">t1</text>
<polygon fill="#c8e6c9" stroke="transparent" points="92,-108 92,-133 117,-133 117,-108 92,-108"/>
<polygon fill="none" stroke="black" points="92,-108 92,-133 117,-133 117,-108 92,-108"/>
<text text-anchor="start" x="97" y="-116.8" font-family="Helvetica,sans-Serif" font-size="14.00">t2</text>
<polygon fill="#c8e6c9" stroke="transparent" points="117,-108 117,-133 142,-133 142,-108 117,-108"/>
<polygon fill="none" stroke="black" points="117,-108 117,-133 142,-133 142,-108 117,-108"/>
<text text-anchor="start" x="122" y="-116.8" font-family="Helvetica,sans-Serif" font-size="14.00">t3</text>
<polygon fill="#e3f2fd" stroke="transparent" points="142,-108 142,-133 157,-133 157,-108 142,-108"/>
<polygon fill="none" stroke="black" points="142,-108 142,-133 157,-133 157,-108 142,-108"/>
<text text-anchor="start" x="147" y="-116.8" font-family="Helvetica,sans-Serif" font-size="14.00">.</text>
<polygon fill="#e3f2fd" stroke="transparent" points="157,-108 157,-133 172,-133 172,-108 157,-108"/>
<polygon fill="none" stroke="black" points="157,-108 157,-133 172,-133 172,-108 157,-108"/>
<text text-anchor="start" x="162" y="-116.8" font-family="Helvetica,sans-Serif" font-size="14.00">.</text>
<polygon fill="#e3f2fd" stroke="transparent" points="172,-108 172,-133 187,-133 187,-108 172,-108"/>
<polygon fill="none" stroke="black" points="172,-108 172,-133 187,-133 187,-108 172,-108"/>
<text text-anchor="start" x="177" y="-116.8" font-family="Helvetica,sans-Serif" font-size="14.00">.</text>
<polygon fill="#e3f2fd" stroke="transparent" points="187,-108 187,-133 202,-133 202,-108 187,-108"/>
<polygon fill="none" stroke="black" points="187,-108 187,-133 202,-133 202,-108 187,-108"/>
<text text-anchor="start" x="192" y="-116.8" font-family="Helvetica,sans-Serif" font-size="14.00">.</text>
<polygon fill="none" stroke="black" points="41,-107 41,-159 203,-159 203,-107 41,-107"/>
</g>
<!-- s0&#45;&gt;s1 -->
<g id="edge1" class="edge">
<title>s0&#45;&gt;s1</title>
<path fill="none" stroke="black" d="M122,-213.82C122,-213.82 122,-169.28 122,-169.28"/>
<polygon fill="black" stroke="black" points="125.5,-169.28 122,-159.28 118.5,-169.28 125.5,-169.28"/>
<text text-anchor="middle" x="182.5" y="-182.8" font-family="Times,serif" font-size="14.00">write by position</text>
</g>
<!-- s2 -->
<g id="node3" class="node">
<title>s2</title>
<polygon fill="#f5f5f5" stroke="transparent" points="28,-26 28,-51 216,-51 216,-26 28,-26"/>
<polygon fill="none" stroke="black" points="28,-26 28,-51 216,-51 216,-26 28,-26"/>
<text text-anchor="start" x="35.5" y="-35.8" font-family="Helvetica,sans-Serif" font-weight="bold" font-size="14.00">After decode to len=6</text>
<polygon fill="#c8e6c9" stroke="transparent" points="28,-1 28,-26 53,-26 53,-1 28,-1"/>
<polygon fill="none" stroke="black" points="28,-1 28,-26 53,-26 53,-1 28,-1"/>
<text text-anchor="start" x="33" y="-9.8" font-family="Helvetica,sans-Serif" font-size="14.00">t0</text>
<polygon fill="#c8e6c9" stroke="transparent" points="53,-1 53,-26 78,-26 78,-1 53,-1"/>
<polygon fill="none" stroke="black" points="53,-1 53,-26 78,-26 78,-1 53,-1"/>
<text text-anchor="start" x="58" y="-9.8" font-family="Helvetica,sans-Serif" font-size="14.00">t1</text>
<polygon fill="#c8e6c9" stroke="transparent" points="78,-1 78,-26 103,-26 103,-1 78,-1"/>
<polygon fill="none" stroke="black" points="78,-1 78,-26 103,-26 103,-1 78,-1"/>
<text text-anchor="start" x="83" y="-9.8" font-family="Helvetica,sans-Serif" font-size="14.00">t2</text>
<polygon fill="#c8e6c9" stroke="transparent" points="103,-1 103,-26 128,-26 128,-1 103,-1"/>
<polygon fill="none" stroke="black" points="103,-1 103,-26 128,-26 128,-1 103,-1"/>
<text text-anchor="start" x="108" y="-9.8" font-family="Helvetica,sans-Serif" font-size="14.00">t3</text>
<polygon fill="#c8e6c9" stroke="transparent" points="128,-1 128,-26 157,-26 157,-1 128,-1"/>
<polygon fill="none" stroke="black" points="128,-1 128,-26 157,-26 157,-1 128,-1"/>
<text text-anchor="start" x="133" y="-9.8" font-family="Helvetica,sans-Serif" font-size="14.00">n0</text>
<polygon fill="#c8e6c9" stroke="transparent" points="157,-1 157,-26 186,-26 186,-1 157,-1"/>
<polygon fill="none" stroke="black" points="157,-1 157,-26 186,-26 186,-1 157,-1"/>
<text text-anchor="start" x="162" y="-9.8" font-family="Helvetica,sans-Serif" font-size="14.00">n1</text>
<polygon fill="#e3f2fd" stroke="transparent" points="186,-1 186,-26 201,-26 201,-1 186,-1"/>
<polygon fill="none" stroke="black" points="186,-1 186,-26 201,-26 201,-1 186,-1"/>
<text text-anchor="start" x="191" y="-9.8" font-family="Helvetica,sans-Serif" font-size="14.00">.</text>
<polygon fill="#e3f2fd" stroke="transparent" points="201,-1 201,-26 216,-26 216,-1 201,-1"/>
<polygon fill="none" stroke="black" points="201,-1 201,-26 216,-26 216,-1 201,-1"/>
<text text-anchor="start" x="206" y="-9.8" font-family="Helvetica,sans-Serif" font-size="14.00">.</text>
<polygon fill="none" stroke="black" points="27,0 27,-52 217,-52 217,0 27,0"/>
</g>
<!-- s1&#45;&gt;s2 -->
<g id="edge2" class="edge">
<title>s1&#45;&gt;s2</title>
<path fill="none" stroke="black" d="M122,-106.82C122,-106.82 122,-62.28 122,-62.28"/>
<polygon fill="black" stroke="black" points="125.5,-62.28 122,-52.28 118.5,-62.28 125.5,-62.28"/>
<text text-anchor="middle" x="182.5" y="-75.8" font-family="Times,serif" font-size="14.00">write by position</text>
</g>
</g>
</svg>
